ply
format ascii 1.0
comment Created by Blender 3.0.0 - www.blender.org
element vertex 927
property float x
property float y
property float z
element face 586
property list uchar uint vertex_indices
end_header
0.048641 0.112676 -0.407532
0.049144 0.084698 -0.437304
0.062189 0.091722 -0.446902
0.065952 0.122010 -0.420286
0.035406 0.150527 -0.467810
0.026942 0.110311 -0.501875
0.060476 0.142553 -0.527934
0.064649 0.174139 -0.495527
0.057349 0.093077 -0.458043
0.040571 0.084031 -0.445682
0.000000 0.095356 -0.481164
0.069859 0.181947 -0.505011
0.065858 0.151612 -0.531545
0.052454 0.159121 -0.542694
0.052047 0.191870 -0.519901
0.049144 0.084698 -0.437304
0.000000 0.125703 -0.524046
0.043301 0.152199 -0.542202
0.000000 0.125703 -0.524046
0.000000 0.171069 -0.497602
0.038964 0.188532 -0.517007
0.052454 0.159121 -0.542694
0.065858 0.151612 -0.531545
0.000000 0.095356 -0.481164
0.036314 0.115456 -0.413298
0.000000 0.130701 -0.440495
0.061399 0.129035 -0.431852
0.062189 0.091722 -0.446902
0.000000 0.419296 0.957699
0.098275 0.419438 0.927155
0.124033 0.529020 0.775905
0.000000 0.544370 0.819341
0.124033 0.529020 0.775905
0.000000 0.589994 0.462333
0.187296 0.564726 0.433461
0.169702 0.677272 0.260123
0.000000 0.697591 0.282360
0.169702 0.677272 0.260123
0.358232 0.299442 0.306088
0.351399 0.237514 0.291813
0.379516 0.274630 0.180619
0.379516 0.274630 0.180619
0.385558 0.342203 0.189181
0.382286 0.314346 -0.188082
0.349234 0.282391 -0.332431
0.355564 0.348424 -0.343998
0.388896 0.390695 -0.182718
0.382286 0.314346 -0.188082
0.343961 0.485911 0.290993
0.360650 0.421864 0.282251
0.365673 0.468631 0.203510
0.348470 0.535560 0.208697
0.363034 0.536921 0.031982
0.362613 0.528955 -0.179048
0.334234 0.599766 -0.178721
0.340901 0.606416 0.034180
0.167286 0.747647 -0.188347
0.178989 0.606943 -0.440835
0.000000 0.622817 -0.502053
0.167286 0.747647 -0.188347
0.000000 0.622817 -0.502053
0.000000 0.789109 -0.199411
0.356411 0.468536 -0.321869
0.329156 0.551728 -0.318013
0.379516 0.274630 0.180619
0.390303 0.315800 0.008335
0.390303 0.315800 0.008335
0.394282 0.394300 0.016758
0.213071 0.332887 -0.544864
0.000000 0.300297 -0.652424
0.000000 0.464696 -0.621311
0.193892 0.469680 -0.544177
0.213071 0.332887 -0.544864
0.246007 0.119192 0.001605
0.000000 0.001579 -0.010515
0.000000 0.013600 -0.215086
0.246007 0.119192 0.001605
0.238667 0.128238 -0.201405
0.235306 0.471924 0.580380
0.284236 0.456955 0.441453
0.187296 0.564726 0.433461
0.149887 0.558464 0.594439
0.187296 0.564726 0.433461
0.149887 0.558464 0.594439
0.187296 0.564726 0.433461
0.000000 0.608226 0.626455
0.149887 0.558464 0.594439
0.238667 0.128238 -0.201405
0.000000 0.082034 -0.461327
0.238667 0.128238 -0.201405
0.000000 0.082034 -0.461327
0.225345 0.178900 -0.412243
0.000000 0.009675 0.174059
0.246007 0.119192 0.001605
0.240269 0.114990 0.187085
0.246007 0.119192 0.001605
0.330015 0.575131 0.209509
0.348470 0.535560 0.208697
0.340901 0.606416 0.034180
0.323515 0.639748 0.033371
0.330015 0.575131 0.209509
0.000000 0.245130 1.089090
0.000000 0.211746 1.093194
0.028432 0.212277 1.082403
0.028432 0.212277 1.082403
0.028054 0.235853 1.081572
0.038908 0.239994 1.064537
0.039573 0.212631 1.063548
0.043554 0.214293 1.042091
0.043554 0.214293 1.042091
0.048389 0.243494 1.042043
0.000000 0.254370 1.067586
0.038908 0.239994 1.064537
0.000000 0.254854 1.046091
0.022757 0.189367 1.072675
0.025567 0.188612 1.056482
0.039573 0.212631 1.063548
0.028432 0.212277 1.082403
0.039573 0.212631 1.063548
0.000000 0.173624 1.054770
0.000000 0.177120 1.036976
0.024527 0.189871 1.036816
0.000000 0.211746 1.093194
0.000000 0.178573 1.075939
0.022757 0.189367 1.072675
0.000000 0.211746 1.093194
0.028432 0.212277 1.082403
0.334234 0.599766 -0.178721
0.329156 0.551728 -0.318013
0.311377 0.599516 -0.298615
0.311377 0.599516 -0.298615
0.316075 0.636437 -0.172643
0.316075 0.636437 -0.172643
0.323515 0.639748 0.033371
0.316075 0.636437 -0.172643
0.000000 0.272553 1.052307
0.069219 0.274825 1.037248
0.069219 0.274825 1.037248
0.098275 0.419438 0.927155
0.326274 0.525371 0.290754
0.343961 0.485911 0.290993
0.330015 0.575131 0.209509
0.326274 0.525371 0.290754
0.349234 0.282391 -0.332431
0.225345 0.178900 -0.412243
0.224800 0.235899 -0.481704
0.349234 0.282391 -0.332431
0.224800 0.235899 -0.481704
0.190182 0.481988 0.743619
0.149887 0.558464 0.594439
0.124033 0.529020 0.775905
0.149887 0.558464 0.594439
0.203414 0.433230 0.742916
0.207375 0.355215 0.746579
0.239034 0.370234 0.636793
0.232212 0.438842 0.638273
0.304061 0.522092 -0.406519
0.193892 0.469680 -0.544177
0.178989 0.606943 -0.440835
0.282173 0.603886 -0.355242
0.178989 0.606943 -0.440835
0.333390 0.417258 -0.405794
0.213071 0.332887 -0.544864
0.193892 0.469680 -0.544177
0.304061 0.522092 -0.406519
0.193892 0.469680 -0.544177
0.279428 0.690430 0.036201
0.274185 0.688574 -0.174464
0.167286 0.747647 -0.188347
0.167511 0.753833 0.042123
0.167286 0.747647 -0.188347
0.309634 0.359794 0.433628
0.304673 0.255284 0.413951
0.358232 0.299442 0.306088
0.347450 0.383904 0.341402
0.122584 0.251728 0.976378
0.123337 0.198329 0.967030
0.161296 0.210862 0.873171
0.161821 0.309302 0.875965
0.169702 0.677272 0.260123
0.282936 0.626148 0.226940
0.167511 0.753833 0.042123
0.169702 0.677272 0.260123
0.284236 0.456955 0.441453
0.309634 0.359794 0.433628
0.347450 0.383904 0.341402
0.325918 0.462921 0.353015
0.282173 0.603886 -0.355242
0.178989 0.606943 -0.440835
0.178989 0.606943 -0.440835
0.167286 0.747647 -0.188347
0.187296 0.564726 0.433461
0.297235 0.523656 0.343749
0.169702 0.677272 0.260123
0.187296 0.564726 0.433461
0.187296 0.564726 0.433461
0.325918 0.462921 0.353015
0.187296 0.564726 0.433461
0.297235 0.523656 0.343749
0.266946 0.233164 0.548257
0.218664 0.129369 0.553419
0.242215 0.144725 0.374697
0.242215 0.144725 0.374697
0.304673 0.255284 0.413951
0.242215 0.144725 0.374697
0.240269 0.114990 0.187085
0.379516 0.274630 0.180619
0.351399 0.237514 0.291813
0.242215 0.144725 0.374697
0.379516 0.274630 0.180619
0.390303 0.315800 0.008335
0.246007 0.119192 0.001605
0.238667 0.128238 -0.201405
0.390303 0.315800 0.008335
0.238667 0.128238 -0.201405
0.382286 0.314346 -0.188082
0.379516 0.274630 0.180619
0.240269 0.114990 0.187085
0.246007 0.119192 0.001605
0.379516 0.274630 0.180619
0.246007 0.119192 0.001605
0.390303 0.315800 0.008335
0.382286 0.314346 -0.188082
0.238667 0.128238 -0.201405
0.225345 0.178900 -0.412243
0.382286 0.314346 -0.188082
0.225345 0.178900 -0.412243
0.349234 0.282391 -0.332431
0.262241 0.377077 0.555126
0.309634 0.359794 0.433628
0.284236 0.456955 0.441453
0.235306 0.471924 0.580380
0.122779 0.289392 0.977314
0.122584 0.251728 0.976378
0.161821 0.309302 0.875965
0.157525 0.364295 0.883984
0.193892 0.469680 -0.544177
0.000000 0.464696 -0.621311
0.000000 0.622817 -0.502053
0.178989 0.606943 -0.440835
0.193892 0.469680 -0.544177
0.000000 0.622817 -0.502053
0.304673 0.255284 0.413951
0.242215 0.144725 0.374697
0.351399 0.237514 0.291813
0.351399 0.237514 0.291813
0.211127 0.223052 0.744516
0.207375 0.355215 0.746579
0.000000 0.068750 0.737000
0.000000 0.056027 0.529811
0.218664 0.129369 0.553419
0.169636 0.114255 0.735102
0.218664 0.129369 0.553419
0.098275 0.419438 0.927155
0.069219 0.274825 1.037248
0.104987 0.277989 1.011805
0.098275 0.419438 0.927155
0.144976 0.392762 0.899466
0.124033 0.529020 0.775905
0.149887 0.558464 0.594439
0.149887 0.558464 0.594439
0.000000 0.178573 1.075939
0.245364 0.228684 0.632003
0.239034 0.370234 0.636793
0.039573 0.212631 1.063548
0.025567 0.188612 1.056482
0.039573 0.212631 1.063548
0.043554 0.214293 1.042091
0.028054 0.235853 1.081572
0.028432 0.212277 1.082403
0.039573 0.212631 1.063548
0.039573 0.212631 1.063548
0.038908 0.239994 1.064537
0.262241 0.377077 0.555126
0.266946 0.233164 0.548257
0.203414 0.433230 0.742916
0.000000 0.122977 1.013324
0.000000 0.081500 0.897900
0.119343 0.124585 0.892225
0.078728 0.152881 1.012646
0.119343 0.124585 0.892225
0.218664 0.129369 0.553419
0.000000 0.051528 0.362174
0.218664 0.129369 0.553419
0.242215 0.144725 0.374697
0.355564 0.348424 -0.343998
0.224800 0.235899 -0.481704
0.213071 0.332887 -0.544864
0.213071 0.332887 -0.544864
0.118563 0.172800 0.966469
0.156933 0.171873 0.876252
0.161296 0.210862 0.873171
0.123337 0.198329 0.967030
0.118563 0.172800 0.966469
0.169702 0.677272 0.260123
0.167511 0.753833 0.042123
0.000000 0.797572 0.043683
0.167511 0.753833 0.042123
0.240269 0.114990 0.187085
0.242215 0.144725 0.374697
0.240269 0.114990 0.187085
0.000000 0.183292 1.060893
0.061133 0.194819 1.053318
0.061133 0.194819 1.053318
0.069219 0.274825 1.037248
0.224800 0.235899 -0.481704
0.000000 0.160336 -0.568671
0.213071 0.332887 -0.544864
0.224800 0.235899 -0.481704
0.225345 0.178900 -0.412243
0.000000 0.082034 -0.461327
0.000000 0.160336 -0.568671
0.225345 0.178900 -0.412243
0.224800 0.235899 -0.481704
0.161296 0.210862 0.873171
0.156933 0.171873 0.876252
0.211143 0.173097 0.741830
0.211143 0.173097 0.741830
0.211127 0.223052 0.744516
0.365673 0.468631 0.203510
0.376396 0.414465 0.199777
0.380211 0.472843 0.027129
0.363034 0.536921 0.031982
0.069219 0.274825 1.037248
0.061133 0.194819 1.053318
0.096316 0.216106 1.029691
0.069219 0.274825 1.037248
0.378144 0.467984 -0.180646
0.367130 0.428303 -0.303219
0.356411 0.468536 -0.321869
0.362613 0.528955 -0.179048
0.360650 0.421864 0.282251
0.367713 0.377008 0.271805
0.376396 0.414465 0.199777
0.378144 0.467984 -0.180646
0.347450 0.383904 0.341402
0.358232 0.299442 0.306088
0.244081 0.175629 0.632135
0.218664 0.129369 0.553419
0.266946 0.233164 0.548257
0.245364 0.228684 0.632003
0.244081 0.175629 0.632135
0.304061 0.522092 -0.406519
0.282173 0.603886 -0.355242
0.311377 0.599516 -0.298615
0.282173 0.603886 -0.355242
0.333390 0.417258 -0.405794
0.304061 0.522092 -0.406519
0.323515 0.639748 0.033371
0.316075 0.636437 -0.172643
0.274185 0.688574 -0.174464
0.279428 0.690430 0.036201
0.323515 0.639748 0.033371
0.282936 0.626148 0.226940
0.330015 0.575131 0.209509
0.323515 0.639748 0.033371
0.323515 0.639748 0.033371
0.325918 0.462921 0.353015
0.347450 0.383904 0.341402
0.316075 0.636437 -0.172643
0.311377 0.599516 -0.298615
0.282173 0.603886 -0.355242
0.316075 0.636437 -0.172643
0.282173 0.603886 -0.355242
0.297235 0.523656 0.343749
0.326274 0.525371 0.290754
0.326274 0.525371 0.290754
0.330015 0.575131 0.209509
0.355564 0.348424 -0.343998
0.333390 0.417258 -0.405794
0.297235 0.523656 0.343749
0.325918 0.462921 0.353015
0.297235 0.523656 0.343749
0.326274 0.525371 0.290754
0.167511 0.753833 0.042123
0.167286 0.747647 -0.188347
0.167511 0.753833 0.042123
0.119343 0.124585 0.892225
0.169636 0.114255 0.735102
0.211143 0.173097 0.741830
0.156933 0.171873 0.876252
0.119343 0.124585 0.892225
0.211143 0.173097 0.741830
0.385558 0.342203 0.189181
0.394282 0.394300 0.016758
0.388896 0.390695 -0.182718
0.211143 0.173097 0.741830
0.169636 0.114255 0.735102
0.218664 0.129369 0.553419
0.211143 0.173097 0.741830
0.218664 0.129369 0.553419
0.244081 0.175629 0.632135
0.262241 0.377077 0.555126
0.235306 0.471924 0.580380
0.211127 0.223052 0.744516
0.211143 0.173097 0.741830
0.244081 0.175629 0.632135
0.244081 0.175629 0.632135
0.169636 0.114255 0.735102
0.119343 0.124585 0.892225
0.169636 0.114255 0.735102
0.190182 0.481988 0.743619
0.078728 0.152881 1.012646
0.119343 0.124585 0.892225
0.156933 0.171873 0.876252
0.118563 0.172800 0.966469
0.078728 0.152881 1.012646
0.156933 0.171873 0.876252
0.144976 0.392762 0.899466
0.104987 0.277989 1.011805
0.122779 0.289392 0.977314
0.157525 0.364295 0.883984
0.098275 0.419438 0.927155
0.124033 0.529020 0.775905
0.098275 0.419438 0.927155
0.266946 0.233164 0.548257
0.262241 0.377077 0.555126
0.096316 0.216106 1.029691
0.102693 0.184644 1.012709
0.122584 0.251728 0.976378
0.104987 0.277989 1.011805
0.096316 0.216106 1.029691
0.390303 0.315800 0.008335
0.382286 0.314346 -0.188082
0.390303 0.315800 0.008335
0.061133 0.194819 1.053318
0.078728 0.152881 1.012646
0.102693 0.184644 1.012709
0.061133 0.194819 1.053318
0.096316 0.216106 1.029691
0.102693 0.184644 1.012709
0.078728 0.152881 1.012646
0.118563 0.172800 0.966469
0.118563 0.172800 0.966469
0.000000 0.183292 1.060893
0.000000 0.122977 1.013324
0.078728 0.152881 1.012646
0.078728 0.152881 1.012646
0.061133 0.194819 1.053318
0.257610 0.347275 0.665450
0.246058 0.379781 0.699365
0.240067 0.296547 0.741777
0.231346 0.390021 0.744291
0.240067 0.296547 0.741777
0.217415 0.375261 0.788192
0.207996 0.339460 0.819309
0.205610 0.292205 0.829314
0.210897 0.246151 0.815526
0.240067 0.296547 0.741777
0.222442 0.213633 0.781632
0.237154 0.203367 0.736705
0.251092 0.218116 0.692785
0.260517 0.253930 0.661647
0.262903 0.301208 0.651642
0.170692 0.161513 0.790078
0.195189 0.145619 0.717748
0.232227 0.176507 0.731925
0.212636 0.189219 0.789774
0.145861 0.363872 0.852110
0.142213 0.287521 0.867652
0.189858 0.289999 0.851817
0.192776 0.351063 0.839386
0.223523 0.417115 0.743384
0.243115 0.404403 0.685535
0.208802 0.430565 0.659745
0.184306 0.446458 0.732075
0.218227 0.170030 0.647337
0.250653 0.196031 0.675612
0.151302 0.213452 0.844947
0.197128 0.230760 0.833657
0.161268 0.422047 0.802486
0.205098 0.397591 0.799697
0.233634 0.228205 0.597712
0.262975 0.242559 0.635922
0.258623 0.362862 0.641652
0.265893 0.303623 0.623492
0.237281 0.304556 0.582171
0.228192 0.378624 0.604876
0.235501 0.296965 0.740203
0.235501 0.296965 0.740203
0.235501 0.296965 0.740203
-0.062189 0.091722 -0.446902
-0.049144 0.084698 -0.437304
-0.048641 0.112676 -0.407532
-0.065952 0.122010 -0.420286
-0.060476 0.142553 -0.527934
-0.026942 0.110311 -0.501875
-0.035406 0.150527 -0.467810
-0.064649 0.174139 -0.495527
-0.040571 0.084031 -0.445682
-0.057349 0.093077 -0.458043
-0.052454 0.159121 -0.542694
-0.065858 0.151612 -0.531545
-0.069859 0.181947 -0.505011
-0.052047 0.191870 -0.519901
-0.049144 0.084698 -0.437304
-0.043301 0.152199 -0.542202
-0.038964 0.188532 -0.517007
-0.052454 0.159121 -0.542694
-0.065858 0.151612 -0.531545
-0.036314 0.115456 -0.413298
-0.061399 0.129035 -0.431852
-0.062189 0.091722 -0.446902
-0.124033 0.529020 0.775905
-0.098275 0.419438 0.927155
-0.124033 0.529020 0.775905
-0.169702 0.677272 0.260123
-0.187296 0.564726 0.433461
-0.169702 0.677272 0.260123
-0.379516 0.274630 0.180619
-0.351399 0.237514 0.291813
-0.358232 0.299442 0.306088
-0.385558 0.342203 0.189181
-0.379516 0.274630 0.180619
-0.355564 0.348424 -0.343998
-0.349234 0.282391 -0.332431
-0.382286 0.314346 -0.188082
-0.382286 0.314346 -0.188082
-0.388896 0.390695 -0.182718
-0.365673 0.468631 0.203510
-0.360650 0.421864 0.282251
-0.343961 0.485911 0.290993
-0.348470 0.535560 0.208697
-0.334234 0.599766 -0.178721
-0.362613 0.528955 -0.179048
-0.363034 0.536921 0.031982
-0.340901 0.606416 0.034180
0.000000 0.622817 -0.502053
-0.178989 0.606943 -0.440835
-0.167286 0.747647 -0.188347
0.000000 0.622817 -0.502053
-0.167286 0.747647 -0.188347
-0.329156 0.551728 -0.318013
-0.356411 0.468536 -0.321869
-0.390303 0.315800 0.008335
-0.379516 0.274630 0.180619
-0.394282 0.394300 0.016758
-0.390303 0.315800 0.008335
-0.213071 0.332887 -0.544864
-0.213071 0.332887 -0.544864
-0.193892 0.469680 -0.544177
-0.246007 0.119192 0.001605
-0.238667 0.128238 -0.201405
-0.246007 0.119192 0.001605
-0.187296 0.564726 0.433461
-0.284236 0.456955 0.441453
-0.235306 0.471924 0.580380
-0.187296 0.564726 0.433461
-0.149887 0.558464 0.594439
-0.187296 0.564726 0.433461
-0.149887 0.558464 0.594439
-0.149887 0.558464 0.594439
0.000000 0.082034 -0.461327
-0.238667 0.128238 -0.201405
-0.225345 0.178900 -0.412243
0.000000 0.082034 -0.461327
-0.238667 0.128238 -0.201405
-0.246007 0.119192 0.001605
-0.246007 0.119192 0.001605
-0.240269 0.114990 0.187085
-0.340901 0.606416 0.034180
-0.348470 0.535560 0.208697
-0.330015 0.575131 0.209509
-0.330015 0.575131 0.209509
-0.323515 0.639748 0.033371
-0.028432 0.212277 1.082403
0.000000 0.211746 1.093194
0.000000 0.245130 1.089090
-0.028054 0.235853 1.081572
-0.028432 0.212277 1.082403
-0.043554 0.214293 1.042091
-0.039573 0.212631 1.063548
-0.038908 0.239994 1.064537
-0.048389 0.243494 1.042043
-0.043554 0.214293 1.042091
-0.038908 0.239994 1.064537
-0.039573 0.212631 1.063548
-0.025567 0.188612 1.056482
-0.022757 0.189367 1.072675
-0.039573 0.212631 1.063548
-0.028432 0.212277 1.082403
-0.024527 0.189871 1.036816
-0.022757 0.189367 1.072675
0.000000 0.178573 1.075939
0.000000 0.211746 1.093194
-0.028432 0.212277 1.082403
0.000000 0.211746 1.093194
-0.311377 0.599516 -0.298615
-0.329156 0.551728 -0.318013
-0.334234 0.599766 -0.178721
-0.316075 0.636437 -0.172643
-0.311377 0.599516 -0.298615
-0.316075 0.636437 -0.172643
-0.316075 0.636437 -0.172643
-0.323515 0.639748 0.033371
-0.069219 0.274825 1.037248
-0.098275 0.419438 0.927155
-0.069219 0.274825 1.037248
-0.343961 0.485911 0.290993
-0.326274 0.525371 0.290754
-0.326274 0.525371 0.290754
-0.330015 0.575131 0.209509
-0.224800 0.235899 -0.481704
-0.225345 0.178900 -0.412243
-0.349234 0.282391 -0.332431
-0.224800 0.235899 -0.481704
-0.349234 0.282391 -0.332431
-0.149887 0.558464 0.594439
-0.190182 0.481988 0.743619
-0.149887 0.558464 0.594439
-0.124033 0.529020 0.775905
-0.239034 0.370234 0.636793
-0.207375 0.355215 0.746579
-0.203414 0.433230 0.742916
-0.232212 0.438842 0.638273
-0.178989 0.606943 -0.440835
-0.193892 0.469680 -0.544177
-0.304061 0.522092 -0.406519
-0.178989 0.606943 -0.440835
-0.282173 0.603886 -0.355242
-0.193892 0.469680 -0.544177
-0.213071 0.332887 -0.544864
-0.333390 0.417258 -0.405794
-0.193892 0.469680 -0.544177
-0.304061 0.522092 -0.406519
-0.167286 0.747647 -0.188347
-0.274185 0.688574 -0.174464
-0.279428 0.690430 0.036201
-0.167286 0.747647 -0.188347
-0.167511 0.753833 0.042123
-0.358232 0.299442 0.306088
-0.304673 0.255284 0.413951
-0.309634 0.359794 0.433628
-0.347450 0.383904 0.341402
-0.161296 0.210862 0.873171
-0.123337 0.198329 0.967030
-0.122584 0.251728 0.976378
-0.161821 0.309302 0.875965
-0.282936 0.626148 0.226940
-0.169702 0.677272 0.260123
-0.169702 0.677272 0.260123
-0.167511 0.753833 0.042123
-0.347450 0.383904 0.341402
-0.309634 0.359794 0.433628
-0.284236 0.456955 0.441453
-0.325918 0.462921 0.353015
-0.178989 0.606943 -0.440835
-0.282173 0.603886 -0.355242
-0.167286 0.747647 -0.188347
-0.178989 0.606943 -0.440835
-0.297235 0.523656 0.343749
-0.187296 0.564726 0.433461
-0.187296 0.564726 0.433461
-0.169702 0.677272 0.260123
-0.325918 0.462921 0.353015
-0.187296 0.564726 0.433461
-0.297235 0.523656 0.343749
-0.187296 0.564726 0.433461
-0.242215 0.144725 0.374697
-0.218664 0.129369 0.553419
-0.266946 0.233164 0.548257
-0.304673 0.255284 0.413951
-0.242215 0.144725 0.374697
-0.379516 0.274630 0.180619
-0.240269 0.114990 0.187085
-0.242215 0.144725 0.374697
-0.379516 0.274630 0.180619
-0.242215 0.144725 0.374697
-0.351399 0.237514 0.291813
-0.238667 0.128238 -0.201405
-0.246007 0.119192 0.001605
-0.390303 0.315800 0.008335
-0.382286 0.314346 -0.188082
-0.238667 0.128238 -0.201405
-0.390303 0.315800 0.008335
-0.246007 0.119192 0.001605
-0.240269 0.114990 0.187085
-0.379516 0.274630 0.180619
-0.390303 0.315800 0.008335
-0.246007 0.119192 0.001605
-0.379516 0.274630 0.180619
-0.225345 0.178900 -0.412243
-0.238667 0.128238 -0.201405
-0.382286 0.314346 -0.188082
-0.349234 0.282391 -0.332431
-0.225345 0.178900 -0.412243
-0.382286 0.314346 -0.188082
-0.284236 0.456955 0.441453
-0.309634 0.359794 0.433628
-0.262241 0.377077 0.555126
-0.235306 0.471924 0.580380
-0.161821 0.309302 0.875965
-0.122584 0.251728 0.976378
-0.122779 0.289392 0.977314
-0.157525 0.364295 0.883984
0.000000 0.622817 -0.502053
-0.193892 0.469680 -0.544177
0.000000 0.622817 -0.502053
-0.193892 0.469680 -0.544177
-0.178989 0.606943 -0.440835
-0.351399 0.237514 0.291813
-0.242215 0.144725 0.374697
-0.304673 0.255284 0.413951
-0.351399 0.237514 0.291813
-0.211127 0.223052 0.744516
-0.207375 0.355215 0.746579
-0.218664 0.129369 0.553419
-0.218664 0.129369 0.553419
-0.169636 0.114255 0.735102
-0.104987 0.277989 1.011805
-0.069219 0.274825 1.037248
-0.098275 0.419438 0.927155
-0.144976 0.392762 0.899466
-0.098275 0.419438 0.927155
-0.149887 0.558464 0.594439
-0.124033 0.529020 0.775905
-0.149887 0.558464 0.594439
-0.245364 0.228684 0.632003
-0.239034 0.370234 0.636793
-0.025567 0.188612 1.056482
-0.039573 0.212631 1.063548
-0.043554 0.214293 1.042091
-0.039573 0.212631 1.063548
-0.028054 0.235853 1.081572
-0.039573 0.212631 1.063548
-0.028432 0.212277 1.082403
-0.028054 0.235853 1.081572
-0.039573 0.212631 1.063548
-0.266946 0.233164 0.548257
-0.262241 0.377077 0.555126
-0.203414 0.433230 0.742916
-0.119343 0.124585 0.892225
-0.119343 0.124585 0.892225
-0.078728 0.152881 1.012646
-0.218664 0.129369 0.553419
-0.242215 0.144725 0.374697
-0.218664 0.129369 0.553419
-0.213071 0.332887 -0.544864
-0.224800 0.235899 -0.481704
-0.355564 0.348424 -0.343998
-0.213071 0.332887 -0.544864
-0.161296 0.210862 0.873171
-0.156933 0.171873 0.876252
-0.118563 0.172800 0.966469
-0.118563 0.172800 0.966469
-0.123337 0.198329 0.967030
-0.167511 0.753833 0.042123
-0.169702 0.677272 0.260123
-0.167511 0.753833 0.042123
-0.240269 0.114990 0.187085
-0.240269 0.114990 0.187085
-0.242215 0.144725 0.374697
-0.061133 0.194819 1.053318
-0.069219 0.274825 1.037248
-0.061133 0.194819 1.053318
-0.224800 0.235899 -0.481704
-0.224800 0.235899 -0.481704
-0.213071 0.332887 -0.544864
0.000000 0.082034 -0.461327
-0.225345 0.178900 -0.412243
-0.224800 0.235899 -0.481704
-0.225345 0.178900 -0.412243
-0.211143 0.173097 0.741830
-0.156933 0.171873 0.876252
-0.161296 0.210862 0.873171
-0.211127 0.223052 0.744516
-0.211143 0.173097 0.741830
-0.380211 0.472843 0.027129
-0.376396 0.414465 0.199777
-0.365673 0.468631 0.203510
-0.363034 0.536921 0.031982
-0.096316 0.216106 1.029691
-0.061133 0.194819 1.053318
-0.069219 0.274825 1.037248
-0.069219 0.274825 1.037248
-0.356411 0.468536 -0.321869
-0.367130 0.428303 -0.303219
-0.378144 0.467984 -0.180646
-0.362613 0.528955 -0.179048
-0.376396 0.414465 0.199777
-0.367713 0.377008 0.271805
-0.360650 0.421864 0.282251
-0.378144 0.467984 -0.180646
-0.358232 0.299442 0.306088
-0.347450 0.383904 0.341402
-0.266946 0.233164 0.548257
-0.218664 0.129369 0.553419
-0.244081 0.175629 0.632135
-0.244081 0.175629 0.632135
-0.245364 0.228684 0.632003
-0.282173 0.603886 -0.355242
-0.304061 0.522092 -0.406519
-0.282173 0.603886 -0.355242
-0.311377 0.599516 -0.298615
-0.304061 0.522092 -0.406519
-0.333390 0.417258 -0.405794
-0.274185 0.688574 -0.174464
-0.316075 0.636437 -0.172643
-0.323515 0.639748 0.033371
-0.323515 0.639748 0.033371
-0.279428 0.690430 0.036201
-0.323515 0.639748 0.033371
-0.330015 0.575131 0.209509
-0.282936 0.626148 0.226940
-0.323515 0.639748 0.033371
-0.347450 0.383904 0.341402
-0.325918 0.462921 0.353015
-0.282173 0.603886 -0.355242
-0.311377 0.599516 -0.298615
-0.316075 0.636437 -0.172643
-0.282173 0.603886 -0.355242
-0.316075 0.636437 -0.172643
-0.326274 0.525371 0.290754
-0.297235 0.523656 0.343749
-0.330015 0.575131 0.209509
-0.326274 0.525371 0.290754
-0.333390 0.417258 -0.405794
-0.355564 0.348424 -0.343998
-0.325918 0.462921 0.353015
-0.297235 0.523656 0.343749
-0.326274 0.525371 0.290754
-0.297235 0.523656 0.343749
-0.167286 0.747647 -0.188347
-0.167511 0.753833 0.042123
-0.167511 0.753833 0.042123
-0.211143 0.173097 0.741830
-0.169636 0.114255 0.735102
-0.119343 0.124585 0.892225
-0.211143 0.173097 0.741830
-0.119343 0.124585 0.892225
-0.156933 0.171873 0.876252
-0.394282 0.394300 0.016758
-0.385558 0.342203 0.189181
-0.388896 0.390695 -0.182718
-0.218664 0.129369 0.553419
-0.169636 0.114255 0.735102
-0.211143 0.173097 0.741830
-0.244081 0.175629 0.632135
-0.218664 0.129369 0.553419
-0.211143 0.173097 0.741830
-0.262241 0.377077 0.555126
-0.235306 0.471924 0.580380
-0.244081 0.175629 0.632135
-0.211143 0.173097 0.741830
-0.211127 0.223052 0.744516
-0.244081 0.175629 0.632135
-0.169636 0.114255 0.735102
-0.169636 0.114255 0.735102
-0.119343 0.124585 0.892225
-0.190182 0.481988 0.743619
-0.156933 0.171873 0.876252
-0.119343 0.124585 0.892225
-0.078728 0.152881 1.012646
-0.156933 0.171873 0.876252
-0.078728 0.152881 1.012646
-0.118563 0.172800 0.966469
-0.122779 0.289392 0.977314
-0.104987 0.277989 1.011805
-0.144976 0.392762 0.899466
-0.157525 0.364295 0.883984
-0.098275 0.419438 0.927155
-0.098275 0.419438 0.927155
-0.124033 0.529020 0.775905
-0.266946 0.233164 0.548257
-0.262241 0.377077 0.555126
-0.102693 0.184644 1.012709
-0.096316 0.216106 1.029691
-0.122584 0.251728 0.976378
-0.096316 0.216106 1.029691
-0.104987 0.277989 1.011805
-0.382286 0.314346 -0.188082
-0.390303 0.315800 0.008335
-0.390303 0.315800 0.008335
-0.102693 0.184644 1.012709
-0.078728 0.152881 1.012646
-0.061133 0.194819 1.053318
-0.096316 0.216106 1.029691
-0.061133 0.194819 1.053318
-0.118563 0.172800 0.966469
-0.078728 0.152881 1.012646
-0.102693 0.184644 1.012709
-0.118563 0.172800 0.966469
-0.078728 0.152881 1.012646
-0.061133 0.194819 1.053318
-0.078728 0.152881 1.012646
-0.257610 0.347275 0.665450
-0.240067 0.296547 0.741777
-0.246058 0.379781 0.699365
-0.240067 0.296547 0.741777
-0.231346 0.390021 0.744291
-0.217415 0.375261 0.788192
-0.207996 0.339460 0.819309
-0.205610 0.292205 0.829314
-0.240067 0.296547 0.741777
-0.210897 0.246151 0.815526
-0.222442 0.213633 0.781632
-0.237154 0.203367 0.736705
-0.251092 0.218116 0.692785
-0.260517 0.253930 0.661647
-0.262903 0.301208 0.651642
-0.232227 0.176507 0.731925
-0.195189 0.145619 0.717748
-0.170692 0.161513 0.790078
-0.212636 0.189219 0.789774
-0.189858 0.289999 0.851817
-0.142213 0.287521 0.867652
-0.145861 0.363872 0.852110
-0.192776 0.351063 0.839386
-0.208802 0.430565 0.659745
-0.243115 0.404403 0.685535
-0.223523 0.417115 0.743384
-0.184306 0.446458 0.732075
-0.218227 0.170030 0.647337
-0.250653 0.196031 0.675612
-0.197128 0.230760 0.833657
-0.151302 0.213452 0.844947
-0.205098 0.397591 0.799697
-0.161268 0.422047 0.802486
-0.233634 0.228205 0.597712
-0.262975 0.242559 0.635922
-0.237281 0.304556 0.582171
-0.265893 0.303623 0.623492
-0.258623 0.362862 0.641652
-0.228192 0.378624 0.604876
-0.235501 0.296965 0.740203
-0.235501 0.296965 0.740203
-0.235501 0.296965 0.740203
3 0 1 2
3 0 2 3
3 4 5 6
3 4 6 7
3 8 9 10
3 5 8 10
3 11 12 13
3 11 13 14
3 15 9 8
3 2 15 8
3 6 5 16
3 6 16 17
3 12 6 17
3 13 12 17
3 16 5 10
3 17 18 19
3 20 17 19
3 21 17 20
3 14 21 20
3 7 6 22
3 7 22 11
3 23 9 24
3 25 23 24
3 24 9 1
3 24 1 0
3 26 8 5
3 26 5 4
3 3 27 8
3 3 8 26
3 28 29 30
3 31 28 32
3 33 34 35
3 36 33 37
3 38 39 40
3 38 41 42
3 43 44 45
3 46 47 45
3 48 49 50
3 48 50 51
3 52 53 54
3 55 52 54
3 56 57 58
3 59 60 61
3 53 62 63
3 54 53 63
3 42 64 65
3 42 66 67
3 68 69 70
3 71 72 70
3 73 74 75
3 76 75 77
3 51 50 52
3 55 51 52
3 78 79 80
3 81 78 82
3 83 84 33
3 85 86 33
3 87 75 88
3 89 90 91
3 92 74 93
3 94 92 95
3 96 97 98
3 99 100 98
3 101 102 103
3 101 104 105
3 106 107 108
3 106 109 110
3 111 112 110
3 111 110 113
3 114 115 116
3 117 114 118
3 115 119 120
3 115 120 121
3 122 123 124
3 125 124 126
3 127 128 129
3 127 130 131
3 98 127 132
3 133 98 134
3 28 135 136
3 28 137 138
3 139 140 97
3 141 142 97
3 143 144 145
3 146 147 45
3 148 78 149
3 150 148 151
3 152 153 154
3 152 154 155
3 156 157 158
3 159 156 160
3 161 162 163
3 164 161 165
3 166 167 168
3 169 166 170
3 171 172 173
3 171 173 174
3 175 176 177
3 175 177 178
3 179 180 166
3 181 182 166
3 183 184 185
3 183 185 186
3 167 187 188
3 167 189 190
3 191 192 180
3 193 194 180
3 195 79 196
3 197 196 198
3 199 200 201
3 199 202 203
3 204 205 206
3 207 208 209
3 210 211 212
3 213 214 215
3 216 217 218
3 219 220 221
3 222 223 224
3 225 226 227
3 228 229 230
3 231 228 230
3 232 233 234
3 235 232 234
3 236 237 238
3 239 240 241
3 242 243 244
3 242 245 38
3 178 177 246
3 178 246 247
3 248 249 250
3 251 248 252
3 253 254 255
3 256 255 257
3 31 258 259
3 85 31 260
3 261 119 115
3 114 261 115
3 247 246 262
3 247 262 263
3 264 265 121
3 266 121 267
3 101 105 112
3 101 112 111
3 268 269 270
3 268 271 272
3 273 274 172
3 273 172 171
3 235 234 153
3 235 153 275
3 276 277 278
3 279 276 280
3 281 249 282
3 283 282 284
3 285 286 287
3 285 288 161
3 289 290 291
3 292 293 291
3 36 294 295
3 296 36 297
3 282 92 298
3 299 282 300
3 135 301 302
3 135 303 304
3 305 306 69
3 307 308 69
3 309 310 311
3 312 311 313
3 314 315 316
3 314 317 318
3 319 320 321
3 322 319 321
3 323 324 325
3 326 325 255
3 327 328 329
3 330 327 329
3 331 332 333
3 331 333 319
3 321 334 330
3 322 321 330
3 335 336 332
3 335 332 331
3 337 338 339
3 340 341 339
3 128 342 343
3 344 128 345
3 62 346 347
3 63 62 347
3 348 349 350
3 351 352 350
3 353 354 355
3 351 353 356
3 357 358 49
3 357 49 48
3 359 360 361
3 362 363 350
3 353 364 365
3 353 366 367
3 328 368 369
3 328 369 329
3 370 371 140
3 372 140 373
3 374 375 61
3 296 376 61
3 377 378 379
3 380 381 382
3 320 383 384
3 320 384 321
3 385 368 328
3 327 385 328
3 332 336 383
3 332 383 333
3 384 385 334
3 321 384 334
3 386 387 388
3 389 390 391
3 155 154 392
3 155 392 393
3 394 395 396
3 394 397 340
3 277 248 398
3 399 277 400
3 401 152 155
3 401 155 393
3 402 403 404
3 405 406 407
3 408 409 410
3 408 410 411
3 408 235 275
3 401 408 275
3 412 257 148
3 413 414 148
3 263 262 415
3 263 415 416
3 417 418 176
3 417 176 419
3 420 421 233
3 420 233 232
3 422 423 46
3 67 424 46
3 425 426 427
3 428 427 429
3 430 431 432
3 430 433 292
3 434 435 436
3 434 437 438
3 439 440 441
3 440 442 443
3 442 444 443
3 444 445 441
3 445 446 443
3 446 447 448
3 447 449 448
3 449 450 448
3 450 451 448
3 451 452 448
3 452 453 448
3 454 455 456
3 457 454 456
3 458 459 460
3 458 460 461
3 462 463 464
3 465 462 464
3 456 455 466
3 456 466 467
3 459 468 469
3 459 469 460
3 470 471 462
3 470 462 465
3 467 466 472
3 473 467 472
3 474 475 476
3 474 476 477
3 468 454 457
3 468 457 469
3 458 461 471
3 470 458 471
3 473 472 476
3 475 473 476
3 478 474 463
3 478 463 462
3 478 462 471
3 478 471 461
3 478 461 460
3 479 460 469
3 479 469 457
3 478 457 456
3 479 456 467
3 479 467 473
3 480 473 475
3 478 475 474
3 463 474 477
3 463 477 464
3 453 439 441
3 481 482 483
3 484 481 483
3 485 486 487
3 488 485 487
3 10 489 490
3 10 490 486
3 491 492 493
3 494 491 493
3 490 489 495
3 490 495 481
3 16 486 485
3 496 16 485
3 496 485 492
3 496 492 491
3 16 10 486
3 19 18 496
3 19 496 497
3 497 496 498
3 497 498 494
3 499 485 488
3 493 499 488
3 500 489 23
3 500 23 25
3 482 489 500
3 483 482 500
3 486 490 501
3 487 486 501
3 490 502 484
3 501 490 484
3 503 504 28
3 505 28 31
3 506 507 33
3 508 33 36
3 509 510 511
3 512 513 511
3 514 515 516
3 514 517 518
3 519 520 521
3 522 519 521
3 523 524 525
3 523 525 526
3 527 528 529
3 61 530 531
3 532 533 524
3 532 524 523
3 534 535 512
3 536 537 512
3 70 69 538
3 70 539 540
3 75 74 541
3 542 75 543
3 525 519 522
3 525 522 526
3 544 545 546
3 547 546 548
3 33 549 550
3 33 551 85
3 552 75 553
3 554 555 556
3 557 74 92
3 558 92 559
3 560 561 562
3 560 563 564
3 565 566 567
3 568 569 567
3 570 571 572
3 573 574 572
3 573 575 111
3 113 573 111
3 576 577 578
3 579 578 580
3 120 119 577
3 581 120 577
3 582 583 584
3 585 582 586
3 587 588 589
3 590 591 589
3 592 589 560
3 593 560 594
3 595 135 28
3 596 597 28
3 561 598 599
3 561 600 601
3 602 603 604
3 514 605 606
3 607 546 608
3 609 608 610
3 611 612 613
3 614 611 613
3 615 616 617
3 618 617 619
3 620 621 622
3 623 622 624
3 625 626 627
3 628 627 629
3 630 631 632
3 633 630 632
3 634 635 636
3 637 634 636
3 627 638 639
3 627 640 641
3 642 643 644
3 645 642 644
3 646 647 626
3 648 649 626
3 638 650 651
3 638 652 653
3 654 545 655
3 656 654 657
3 658 659 660
3 661 662 660
3 663 664 665
3 666 667 668
3 669 670 671
3 672 673 674
3 675 676 677
3 678 679 680
3 681 682 683
3 684 685 686
3 687 688 689
3 687 689 690
3 691 692 693
3 691 693 694
3 695 237 696
3 697 698 699
3 700 701 702
3 511 703 702
3 704 634 637
3 705 704 637
3 706 249 248
3 707 248 708
3 709 710 711
3 712 709 713
3 714 715 31
3 716 31 85
3 577 119 261
3 577 261 578
3 717 704 705
3 718 717 705
3 581 719 720
3 721 581 722
3 575 723 101
3 111 575 101
3 724 725 726
3 575 727 726
3 631 728 729
3 632 631 729
3 612 691 694
3 730 612 694
3 731 277 276
3 732 276 733
3 282 249 734
3 735 282 736
3 737 738 739
3 622 740 739
3 741 742 743
3 741 744 745
3 746 747 36
3 748 36 296
3 749 92 282
3 750 282 751
3 752 301 135
3 753 754 135
3 69 306 755
3 69 756 757
3 311 758 759
3 760 311 761
3 762 763 764
3 765 766 764
3 767 768 769
3 767 769 770
3 771 772 773
3 709 771 774
3 775 776 777
3 775 777 778
3 779 780 781
3 769 779 781
3 778 782 767
3 778 767 770
3 780 783 784
3 781 780 784
3 785 786 787
3 785 788 789
3 790 791 588
3 792 588 793
3 794 795 533
3 794 533 532
3 796 797 798
3 796 799 800
3 801 802 803
3 804 803 800
3 520 805 806
3 521 520 806
3 807 808 809
3 796 810 811
3 812 813 803
3 814 815 803
3 816 817 776
3 775 816 776
3 598 818 819
3 820 598 821
3 61 822 823
3 61 824 296
3 825 826 827
3 828 829 830
3 831 832 768
3 767 831 768
3 776 817 833
3 776 833 777
3 832 783 780
3 779 832 780
3 782 833 831
3 782 831 767
3 834 835 836
3 837 838 839
3 840 611 614
3 841 840 614
3 842 843 844
3 789 845 844
3 846 248 277
3 847 277 848
3 614 613 849
3 841 614 849
3 850 851 852
3 853 854 855
3 856 857 858
3 859 856 858
3 730 694 858
3 730 858 849
3 608 712 860
3 608 861 862
3 863 717 718
3 864 863 718
3 635 865 866
3 867 635 866
3 692 868 869
3 693 692 869
3 518 870 871
3 518 872 536
3 873 874 875
3 876 873 877
3 878 879 880
3 745 881 880
3 882 435 434
3 883 884 434
3 885 886 887
3 887 888 889
3 889 888 890
3 890 886 891
3 891 888 892
3 892 893 894
3 894 893 895
3 895 893 896
3 896 893 897
3 897 893 898
3 898 893 899
3 900 901 902
3 900 902 903
3 904 905 906
3 907 904 906
3 908 909 910
3 908 910 911
3 912 901 900
3 913 912 900
3 914 915 905
3 904 914 905
3 910 916 917
3 911 910 917
3 918 912 913
3 918 913 919
3 920 921 922
3 923 920 922
3 903 902 915
3 914 903 915
3 916 907 906
3 916 906 917
3 920 918 919
3 920 919 921
3 924 909 922
3 924 910 909
3 924 916 910
3 924 907 916
3 924 904 907
3 925 914 904
3 925 903 914
3 924 900 903
3 925 913 900
3 925 919 913
3 926 921 919
3 924 922 921
3 923 922 909
3 908 923 909
3 899 886 885
