ply
format ascii 1.0
comment VCGLIB generated
element vertex 93
property float x
property float y
property float z
property float texture_u
property float texture_v
element face 88
property list uchar int vertex_indices
end_header
-0.2418318 -0.7620049 0.8605443 0.4347267 0.5
-0.2306433 -0.7942585 0.8279244 0.4347267 0.502
-0.2075462 -0.8055915 0.8519247 0.4347267 0.502
-0.2224487 -0.7652071 0.8931698 0.4347267 0.501999795
-0.1882154 -0.7571652 0.6372905 0.5649431 0.501999795437
-0.1891799 -0.804207 0.6372591 0.5649431 0.501999795436859
-0.1989929 -0.804317 0.6836608 0.5649431 0.501999735832214355
-0.1941806 -0.7575397 0.6735013 0.5649431 0.501999795436859130859
-0.1806268 -0.756815 0.5918877 0.5649431 0.501999795436859130859375
-0.1814524 -0.8032247 0.5923136 0.5649431 0.501999795436859130859375
-0.1617756 -0.6770289 0.6668986 0.4347267 0.501999795436859130859375
-0.1899319 -0.7016209 0.640242 0.4347267 0.501999795436859130859375
-0.1996899 -0.7019259 0.6871997 0.4347267 0.50199973583221435546875
-0.1685527 -0.6775521 0.7099041 0.4347267 0.501999795436859130859375
-0.1559007 -0.6775476 0.6248496 0.4347267 0.501999795436859130859375
-0.1823165 -0.7020578 0.594708 0.4347267 0.501999795436859130859375
-0.1098383 -0.7539847 0.7130262 0.4347266 0.501999795436859130859375
-0.1250763 -0.6994866 0.6994718 0.4347266 0.501999795436859130859375
-0.1305842 -0.7000206 0.7370068 0.4347267 0.501999795436859130859375
-0.115283 -0.7547768 0.7482835 0.4347267 0.501999795436859130859375
-0.1063787 -0.7534339 0.6786436 0.4347267 0.501999795436859130859375
-0.1211905 -0.6996998 0.6628067 0.4347267 0.501999795436859130859375
-0.1682081 -0.8268135 0.7042392 0.4347267 0.501999795436859130859375
-0.1611278 -0.8260095 0.6622186 0.4347266 0.501999795436859130859375
-0.1249936 -0.8062702 0.6958377 0.4347266 0.501999795436859130859375
-0.130755 -0.8071946 0.7327482 0.4347267 0.501999795436859130859375
-0.154968 -0.8247725 0.6210536 0.4347267 0.501999795436859130859375
-0.120775 -0.8051382 0.6597415 0.4347267 0.501999795436859130859375
-0.2075462 -0.8055915 0.8519247 0.4347267 0.501999795436859130859375
-0.1866323 -0.8239075 0.7872278 0.4347267 0.501999795436859130859375
-0.1498429 -0.8063958 0.8056263 0.4347267 0.501999795436859130859375
-0.1736391 -0.7983624 0.8535923 0.4347267 0.50199973583221435546875
-0.137645 -0.7579744 0.8200333 0.4347267 0.501999795436859130859375
-0.1499902 -0.7067763 0.8117199 0.4347267 0.501999795436859130859375
-0.1751339 -0.7229946 0.8613259 0.4347267 0.50199973583221435546875
-0.1766217 -0.7631539 0.8764667 0.4347267 0.501999795436859130859375
-0.1868622 -0.6866587 0.7957197 0.4347267 0.501999795436859130859375
-0.21573 -0.7008673 0.7761446 0.4347267 0.501999795436859130859375
-0.2318612 -0.723183 0.8369417 0.4347267 0.501999795436859130859375
-0.2090707 -0.7159964 0.8620291 0.4347267 0.501999795436859130859375
-0.2148337 -0.7595264 0.7812191 0.5618427 0.501999795436859130859375
-0.2168844 -0.7875277 0.7704546 0.5618428 0.501999795436859130859375
-0.2292544 -0.7815108 0.8154337 0.5618427 0.50199973583221435546875
-0.233417 -0.759689 0.8319446 0.5618427 0.501999795436859130859375
-0.1868622 -0.6866587 0.7957197 0.4347267 0.501999795436859130859375
-0.2090707 -0.7159964 0.8620291 0.4347267 0.501999795436859130859375
-0.2152558 -0.8081303 0.7693924 0.4347267 0.501999795436859130859375
-0.1866323 -0.8239075 0.7872278 0.4347267 0.501999795436859130859375
-0.1989929 -0.804317 0.6836608 0.4347267 0.50199973583221435546875
-0.1891799 -0.804207 0.6372591 0.4347267 0.501999795436859130859375
-0.1611278 -0.8260095 0.6622186 0.4347267 0.501999795436859130859375
-0.1682081 -0.8268135 0.7042392 0.4347267 0.501999795436859130859375
-0.1814524 -0.8032247 0.5923136 0.4347267 0.501999795436859130859375
-0.1617756 -0.6770289 0.6668986 0.4347266 0.501999795436859130859375
-0.1685527 -0.6775521 0.7099041 0.4347267 0.501999795436859130859375
-0.2224487 -0.7652071 0.8931698 0.4347267 0.501999795436859130859375
-0.2305524 -0.7341418 0.8215618 0.5618427 0.50199973583221435546875
-0.217903 -0.7238547 0.7744801 0.5618427 0.501999795436859130859375
-0.233417 -0.759689 0.8319446 0.5618427 0.501999795436859130859375
-0.1899319 -0.7016209 0.640242 0.5649431 0.501999795436859130859375
-0.1996899 -0.7019259 0.6871997 0.5649431 0.50199973583221435546875
-0.1823165 -0.7020578 0.594708 0.5649431 0.501999795436859130859375
-0.2063724 -0.722738 0.7179793 0.5618427 0.50199973583221435546875
-0.2010653 -0.758498 0.7160011 0.5618427 0.501999795436859130859375
-0.217903 -0.7238547 0.7744801 0.5618427 0.501999795436859130859375
-0.1498429 -0.8063958 0.8056263 0.4347267 0.501999795436859130859375
-0.137645 -0.7579744 0.8200333 0.4347267 0.501999795436859130859375
-0.1499902 -0.7067763 0.8117199 0.4347267 0.501999795436859130859375
-0.2152558 -0.8081303 0.7693924 0.4347267 0.501999795436859130859375
-0.1989929 -0.804317 0.6836608 0.4347267 0.50199973583221435546875
-0.1682081 -0.8268135 0.7042392 0.4347267 0.501999795436859130859375
-0.1866323 -0.8239075 0.7872278 0.4347267 0.501999795436859130859375
-0.1685527 -0.6775521 0.7099041 0.4347267 0.501999795436859130859375
-0.1996899 -0.7019259 0.6871997 0.4347267 0.50199973583221435546875
-0.21573 -0.7008673 0.7761446 0.4347267 0.501999795436859130859375
-0.1868622 -0.6866587 0.7957197 0.4347267 0.501999795436859130859375
-0.2053761 -0.7872074 0.7159387 0.5618427 0.50199973583221435546875
-0.2168844 -0.7875277 0.7704546 0.5618428 0.501999795436859130859375
-0.233417 -0.759689 0.8319446 0.5618427 0.501999795436859130859375
-0.2292544 -0.7815108 0.8154337 0.5618427 0.50199973583221435546875
-0.2306433 -0.7942585 0.8279244 0.5618427 0.501999795436859130859375
-0.2418318 -0.7620049 0.8605443 0.5618427 0.501999795436859130859375
-0.21573 -0.7008673 0.7761446 0.5618427 0.501999795436859130859375
-0.217903 -0.7238547 0.7744801 0.5618428 0.501999795436859130859375
-0.2305524 -0.7341418 0.8215618 0.5618427 0.50199973583221435546875
-0.2318612 -0.723183 0.8369417 0.5618427 0.501999795436859130859375
-0.2168844 -0.7875277 0.7704546 0.5618427 0.501999795436859130859375
-0.2152558 -0.8081303 0.7693924 0.5618427 0.501999795436859130859375
-0.1996899 -0.7019259 0.6871997 0.5618427 0.501999795436859130859375
-0.217903 -0.7238547 0.7744801 0.5618428 0.501999795436859130859375
-0.233417 -0.759689 0.8319446 0.5618427 0.501999795436859130859375
-0.1989929 -0.804317 0.6836608 0.5618427 0.501999795436859130859375
-0.1941806 -0.7575397 0.6735013 0.5618427 0.501999795436859130859375
3 0 1 2 
3 0 2 3 
3 4 5 6 
3 7 4 6 
3 4 8 9 
3 4 9 5 
3 10 11 12 
3 13 10 12 
3 14 15 11 
3 10 14 11 
3 16 17 18 
3 19 16 18 
3 20 21 17 
3 16 20 17 
3 22 23 24 
3 22 24 25 
3 23 26 27 
3 23 27 24 
3 28 29 30 
3 28 30 31 
3 32 33 34 
3 35 32 34 
3 36 37 38 
3 39 36 38 
3 40 41 42 
3 43 40 42 
3 33 44 45 
3 34 33 45 
3 1 46 47 
3 1 47 2 
3 48 49 50 
3 48 50 51 
3 49 52 26 
3 49 26 50 
3 17 53 54 
3 18 17 54 
3 21 14 53 
3 17 21 53 
3 28 31 35 
3 55 28 35 
3 35 34 45 
3 35 45 55 
3 56 57 40 
3 56 40 58 
3 31 30 32 
3 31 32 35 
3 25 24 16 
3 25 16 19 
3 24 27 20 
3 24 20 16 
3 59 4 7 
3 60 59 7 
3 61 8 4 
3 59 61 4 
3 39 38 0 
3 39 0 3 
3 62 63 40 
3 64 62 40 
3 65 25 19 
3 65 19 66 
3 18 54 36 
3 67 18 36 
3 68 69 70 
3 68 70 71 
3 47 22 25 
3 47 25 65 
3 19 18 67 
3 66 19 67 
3 72 73 74 
3 75 72 74 
3 63 76 77 
3 40 63 77 
3 78 79 80 
3 78 80 81 
3 82 83 84 
3 85 82 84 
3 86 87 80 
3 79 86 80 
3 82 88 62 
3 82 62 89 
3 85 84 90 
3 85 90 81 
3 76 91 87 
3 86 76 87 
3 88 92 63 
3 62 88 63 
3 63 92 91 
3 63 91 76 
