ply
format ascii 1.0
comment VCGLIB generated
element vertex 93
property float x
property float y
property float z
property uchar red
property uchar green
property uchar blue
property uchar alpha
property float texture_u
property float texture_v
element face 88
property list uchar int vertex_indices
end_header
0.2895269 -0.7990422 0.7457623 255 255 255 255 0.4347267 0.5
0.3038191 -0.7880842 0.7155368 255 255 255 255 0.4347267 0.502
0.3239784 -0.75487 0.7423689 255 255 255 255 0.4347267 0.502
0.3157422 -0.7574348 0.779463 255 255 255 255 0.4347267 0.501999795
0.2291469 -0.8022469 0.5884999 255 255 255 255 0.5649431 0.501999735832
0.2054158 -0.8034541 0.5474536 255 255 255 255 0.5649431 0.501999795436859
0.2036345 -0.756441 0.5467794 255 255 255 255 0.5649431 0.501999795436859131
0.2205504 -0.7558061 0.579343 255 255 255 255 0.5649431 0.501999795436859130859
0.1841025 -0.8037287 0.5071244 255 255 255 255 0.5649431 0.501999795436859130859375
0.1823231 -0.7573577 0.5059858 255 255 255 255 0.5649431 0.501999795436859130859375
0.2290049 -0.6997968 0.5894613 255 255 255 255 0.4347267 0.50199973583221435546875
0.2051498 -0.7008231 0.5478654 255 255 255 255 0.4347267 0.501999795436859130859375
0.1862061 -0.6758571 0.5814206 255 255 255 255 0.4347267 0.501999795436859130859375
0.2060055 -0.6751848 0.6201918 255 255 255 255 0.4347267 0.501999795436859130859375
0.1837868 -0.7025304 0.5069724 255 255 255 255 0.4347267 0.501999795436859130859375
0.1675806 -0.6775361 0.5433002 255 255 255 255 0.4347267 0.501999795436859130859375
0.178749 -0.6973572 0.6582244 255 255 255 255 0.4347267 0.501999795436859130859375
0.1618537 -0.6978622 0.6242568 255 255 255 255 0.4347266 0.501999795436859130859375
0.152591 -0.7521535 0.6430349 255 255 255 255 0.4347266 0.501999795436859130859375
0.168724 -0.7519665 0.6748633 255 255 255 255 0.4347267 0.501999795436859130859375
0.1467841 -0.6990735 0.5906277 255 255 255 255 0.4347267 0.501999795436859130859375
0.1386208 -0.7525369 0.6114261 255 255 255 255 0.4347267 0.501999795436859130859375
0.1626317 -0.8046986 0.6231078 255 255 255 255 0.4347266 0.501999795436859130859375
0.1869065 -0.8249072 0.5803537 255 255 255 255 0.4347266 0.501999795436859130859375
0.2066935 -0.8245378 0.6181009 255 255 255 255 0.4347267 0.501999795436859130859375
0.1795812 -0.8045974 0.6564115 255 255 255 255 0.4347267 0.501999795436859130859375
0.1473973 -0.8045542 0.590094 255 255 255 255 0.4347267 0.501999795436859130859375
0.168252 -0.8248112 0.5431244 255 255 255 255 0.4347267 0.501999795436859130859375
0.2203285 -0.8016893 0.7197155 255 255 255 255 0.4347267 0.501999795436859130859375
0.249909 -0.8192675 0.6911738 255 255 255 255 0.4347267 0.501999795436859130859375
0.2895269 -0.7990422 0.7457623 255 255 255 255 0.4347267 0.501999795436859130859375
0.2576839 -0.7921468 0.7577292 255 255 255 255 0.4347267 0.50199973583221435546875
0.2601043 -0.7165912 0.7630053 255 255 255 255 0.4347267 0.50199973583221435546875
0.2205086 -0.7019492 0.7233344 255 255 255 255 0.4347267 0.501999795436859130859375
0.2123071 -0.7530465 0.7361629 255 255 255 255 0.4347267 0.501999795436859130859375
0.2669643 -0.7563234 0.7777876 255 255 255 255 0.4347267 0.501999795436859130859375
0.3064547 -0.7167888 0.7222104 255 255 255 255 0.4347267 0.501999795436859130859375
0.2718376 -0.6962441 0.6689743 255 255 255 255 0.4347267 0.501999795436859130859375
0.2502127 -0.6818498 0.6962431 255 255 255 255 0.4347267 0.501999795436859130859375
0.2924471 -0.7092029 0.7529785 255 255 255 255 0.4347267 0.501999795436859130859375
0.2983851 -0.7756823 0.7038271 255 255 255 255 0.5618427 0.50199973583221435546875
0.2727792 -0.7830052 0.6650579 255 255 255 255 0.5618428 0.501999795436859130859375
0.2736509 -0.7547574 0.6753266 255 255 255 255 0.5618427 0.501999795436859130859375
0.3070607 -0.7533932 0.7177576 255 255 255 255 0.5618427 0.501999795436859130859375
0.2924471 -0.7092029 0.7529785 255 255 255 255 0.4347267 0.501999795436859130859375
0.2502127 -0.6818498 0.6962431 255 255 255 255 0.4347267 0.501999795436859130859375
0.249909 -0.8192675 0.6911738 255 255 255 255 0.4347267 0.501999795436859130859375
0.2712845 -0.8036454 0.6649944 255 255 255 255 0.4347267 0.501999795436859130859375
0.1869065 -0.8249072 0.5803537 255 255 255 255 0.4347267 0.501999795436859130859375
0.2054158 -0.8034541 0.5474536 255 255 255 255 0.4347267 0.501999795436859130859375
0.2291469 -0.8022469 0.5884999 255 255 255 255 0.4347267 0.50199973583221435546875
0.2066935 -0.8245378 0.6181009 255 255 255 255 0.4347267 0.501999795436859130859375
0.1841025 -0.8037287 0.5071244 255 255 255 255 0.4347267 0.501999795436859130859375
0.2060055 -0.6751848 0.6201918 255 255 255 255 0.4347267 0.501999795436859130859375
0.1862061 -0.6758571 0.5814206 255 255 255 255 0.4347266 0.501999795436859130859375
0.3157422 -0.7574348 0.779463 255 255 255 255 0.4347267 0.501999795436859130859375
0.2738135 -0.7192418 0.6672079 255 255 255 255 0.5618427 0.501999795436859130859375
0.3006406 -0.7281584 0.7082362 255 255 255 255 0.5618427 0.50199973583221435546875
0.3070607 -0.7533932 0.7177576 255 255 255 255 0.5618427 0.501999795436859130859375
0.2051498 -0.7008231 0.5478654 255 255 255 255 0.5649431 0.501999795436859130859375
0.2290049 -0.6997968 0.5894613 255 255 255 255 0.5649431 0.50199973583221435546875
0.1837868 -0.7025304 0.5069724 255 255 255 255 0.5649431 0.501999795436859130859375
0.2403031 -0.7555805 0.6176097 255 255 255 255 0.5618427 0.501999795436859130859375
0.2452965 -0.7197249 0.6170772 255 255 255 255 0.5618427 0.50199973583221435546875
0.2738135 -0.7192418 0.6672079 255 255 255 255 0.5618427 0.501999795436859130859375
0.2203285 -0.8016893 0.7197155 255 255 255 255 0.4347267 0.501999795436859130859375
0.2123071 -0.7530465 0.7361629 255 255 255 255 0.4347267 0.501999795436859130859375
0.2205086 -0.7019492 0.7233344 255 255 255 255 0.4347267 0.501999795436859130859375
0.2066935 -0.8245378 0.6181009 255 255 255 255 0.4347267 0.501999795436859130859375
0.2291469 -0.8022469 0.5884999 255 255 255 255 0.4347267 0.50199973583221435546875
0.2712845 -0.8036454 0.6649944 255 255 255 255 0.4347267 0.501999795436859130859375
0.249909 -0.8192675 0.6911738 255 255 255 255 0.4347267 0.501999795436859130859375
0.2718376 -0.6962441 0.6689743 255 255 255 255 0.4347267 0.501999795436859130859375
0.2290049 -0.6997968 0.5894613 255 255 255 255 0.4347267 0.50199973583221435546875
0.2060055 -0.6751848 0.6201918 255 255 255 255 0.4347267 0.501999795436859130859375
0.2502127 -0.6818498 0.6962431 255 255 255 255 0.4347267 0.501999795436859130859375
0.2727792 -0.7830052 0.6650579 255 255 255 255 0.5618428 0.501999795436859130859375
0.2449144 -0.7842325 0.6168234 255 255 255 255 0.5618427 0.50199973583221435546875
0.3038191 -0.7880842 0.7155368 255 255 255 255 0.5618427 0.501999795436859130859375
0.2983851 -0.7756823 0.7038271 255 255 255 255 0.5618427 0.50199973583221435546875
0.3070607 -0.7533932 0.7177576 255 255 255 255 0.5618427 0.501999795436859130859375
0.3239784 -0.75487 0.7423689 255 255 255 255 0.5618427 0.501999795436859130859375
0.3006406 -0.7281584 0.7082362 255 255 255 255 0.5618427 0.50199973583221435546875
0.2738135 -0.7192418 0.6672079 255 255 255 255 0.5618428 0.501999795436859130859375
0.2718376 -0.6962441 0.6689743 255 255 255 255 0.5618427 0.501999795436859130859375
0.3064547 -0.7167888 0.7222104 255 255 255 255 0.5618427 0.501999795436859130859375
0.2712845 -0.8036454 0.6649944 255 255 255 255 0.5618427 0.501999795436859130859375
0.2727792 -0.7830052 0.6650579 255 255 255 255 0.5618427 0.501999795436859130859375
0.2290049 -0.6997968 0.5894613 255 255 255 255 0.5618427 0.501999795436859130859375
0.2738135 -0.7192418 0.6672079 255 255 255 255 0.5618428 0.501999795436859130859375
0.3070607 -0.7533932 0.7177576 255 255 255 255 0.5618427 0.501999795436859130859375
0.2291469 -0.8022469 0.5884999 255 255 255 255 0.5618427 0.501999795436859130859375
0.2205504 -0.7558061 0.579343 255 255 255 255 0.5618427 0.501999795436859130859375
3 0 1 2 
3 3 0 2 
3 4 5 6 
3 4 6 7 
3 8 9 6 
3 5 8 6 
3 10 11 12 
3 10 12 13 
3 11 14 15 
3 11 15 12 
3 16 17 18 
3 16 18 19 
3 17 20 21 
3 17 21 18 
3 22 23 24 
3 25 22 24 
3 26 27 23 
3 22 26 23 
3 28 29 30 
3 31 28 30 
3 32 33 34 
3 32 34 35 
3 36 37 38 
3 36 38 39 
3 40 41 42 
3 40 42 43 
3 44 45 33 
3 44 33 32 
3 46 47 1 
3 0 46 1 
3 48 49 50 
3 51 48 50 
3 27 52 49 
3 48 27 49 
3 53 54 17 
3 53 17 16 
3 54 15 20 
3 54 20 17 
3 35 31 30 
3 35 30 55 
3 44 32 35 
3 55 44 35 
3 42 56 57 
3 58 42 57 
3 34 28 31 
3 35 34 31 
3 18 22 25 
3 19 18 25 
3 21 26 22 
3 18 21 22 
3 7 6 59 
3 7 59 60 
3 6 9 61 
3 6 61 59 
3 2 36 39 
3 3 2 39 
3 42 62 63 
3 42 63 64 
3 19 25 65 
3 66 19 65 
3 38 53 16 
3 38 16 67 
3 68 69 70 
3 71 68 70 
3 25 24 46 
3 65 25 46 
3 67 16 19 
3 67 19 66 
3 72 73 74 
3 72 74 75 
3 76 77 62 
3 76 62 42 
3 78 79 80 
3 81 78 80 
3 82 83 84 
3 82 84 85 
3 78 86 87 
3 78 87 79 
3 63 88 84 
3 89 63 84 
3 90 82 85 
3 81 90 85 
3 86 91 77 
3 86 77 87 
3 62 92 88 
3 62 88 63 
3 91 92 62 
3 77 91 62 
