ply
format ascii 1.0
comment VCGLIB generated
element vertex 93
property float x
property float y
property float z
element face 88
property list uchar int vertex_indices
end_header
-0.0735283 0.1567859 0.007995935 
-0.06233985 0.124166 0.04024956 
-0.03924272 0.1481663 0.05158255 
-0.05414524 0.1894114 0.01119814 
-0.01991186 -0.06646779 0.003156276 
-0.02087644 -0.0664992 0.05019805 
-0.03068943 -0.02009752 0.05030808 
-0.02587708 -0.03025701 0.003530832 
-0.01232334 -0.1118707 0.00280604 
-0.01314892 -0.1114447 0.04921576 
0.006527925 -0.03685972 -0.07698002 
-0.0216284 -0.06351635 -0.05238798 
-0.03138641 -0.01655867 -0.05208305 
-0.0002492424 0.006145749 -0.07645682 
0.01240275 -0.07890871 -0.07646134 
-0.01401295 -0.1090503 -0.05195108 
0.05846519 0.009267841 -2.422743e-05 
0.0432272 -0.004286554 -0.05452231 
0.0377193 0.03324852 -0.05398837 
0.0530205 0.04452518 0.0007679183 
0.0619248 -0.02511474 -0.0005749743 
0.04711304 -0.04095158 -0.05430916 
9.539165e-05 0.0004808642 0.07280454 
0.007175663 -0.04153975 0.07200059 
0.04330988 -0.007920649 0.05226132 
0.03754846 0.02898989 0.05318567 
0.01333546 -0.08270475 0.07076356 
0.04752845 -0.0440168 0.05112931 
-0.03924272 0.1481663 0.05158255 
-0.01832879 0.08346948 0.06989858 
0.01846064 0.101868 0.05238685 
-0.005335605 0.1498339 0.04435346 
0.03065849 0.1162749 0.003965469 
0.01831331 0.1079616 -0.04723266 
-0.006830355 0.1575675 -0.03101435 
-0.008318236 0.1727084 0.009144993 
-0.0185587 0.09196141 -0.06735018 
-0.04742647 0.07238623 -0.05314162 
-0.06355776 0.1331834 -0.03082588 
-0.04076719 0.1582708 -0.03801253 
-0.04653019 0.07746074 0.005517455 
-0.04858094 0.06669626 0.03351876 
-0.06095088 0.1116754 0.02750191 
-0.06511353 0.1281863 0.005680056 
-0.0185587 0.09196141 -0.06735018 
-0.04076719 0.1582708 -0.03801253 
-0.04695228 0.0656341 0.05412135 
-0.01832879 0.08346948 0.06989858 
-0.03068943 -0.02009752 0.05030808 
-0.02087644 -0.0664992 0.05019805 
0.007175663 -0.04153975 0.07200059 
9.539165e-05 0.0004808642 0.07280454 
-0.01314892 -0.1114447 0.04921576 
0.006527925 -0.03685972 -0.07698002 
-0.0002492424 0.006145749 -0.07645682 
-0.05414524 0.1894114 0.01119814 
-0.06224891 0.1178034 -0.01986709 
-0.04959954 0.07072178 -0.03015426 
-0.06511353 0.1281863 0.005680056 
-0.0216284 -0.06351635 -0.05238798 
-0.03138641 -0.01655867 -0.05208305 
-0.01401295 -0.1090503 -0.05195108 
-0.03806893 0.01422099 -0.03127089 
-0.03276183 0.01224277 0.004489036 
-0.04959954 0.07072178 -0.03015426 
0.01846064 0.101868 0.05238685 
0.03065849 0.1162749 0.003965469 
0.01831331 0.1079616 -0.04723266 
-0.04695228 0.0656341 0.05412135 
-0.03068943 -0.02009752 0.05030808 
9.539165e-05 0.0004808642 0.07280454 
-0.01832879 0.08346948 0.06989858 
-0.0002492424 0.006145749 -0.07645682 
-0.03138641 -0.01655867 -0.05208305 
-0.04742647 0.07238623 -0.05314162 
-0.0185587 0.09196141 -0.06735018 
-0.03707264 0.01218042 0.03319845 
-0.04858094 0.06669626 0.03351876 
-0.06511353 0.1281863 0.005680056 
-0.06095088 0.1116754 0.02750191 
-0.06233985 0.124166 0.04024956 
-0.0735283 0.1567859 0.007995935 
-0.04742647 0.07238623 -0.05314162 
-0.04959954 0.07072178 -0.03015426 
-0.06224891 0.1178034 -0.01986709 
-0.06355776 0.1331834 -0.03082588 
-0.04858094 0.06669626 0.03351876 
-0.04695228 0.0656341 0.05412135 
-0.03138641 -0.01655867 -0.05208305 
-0.04959954 0.07072178 -0.03015426 
-0.06511353 0.1281863 0.005680056 
-0.03068943 -0.02009752 0.05030808 
-0.02587708 -0.03025701 0.003530832 
3 0 1 2 
3 0 2 3 
3 4 5 6 
3 7 4 6 
3 4 8 9 
3 4 9 5 
3 10 11 12 
3 13 10 12 
3 14 15 11 
3 10 14 11 
3 16 17 18 
3 19 16 18 
3 20 21 17 
3 16 20 17 
3 22 23 24 
3 22 24 25 
3 23 26 27 
3 23 27 24 
3 28 29 30 
3 28 30 31 
3 32 33 34 
3 35 32 34 
3 36 37 38 
3 39 36 38 
3 40 41 42 
3 43 40 42 
3 33 44 45 
3 34 33 45 
3 1 46 47 
3 1 47 2 
3 48 49 50 
3 48 50 51 
3 49 52 26 
3 49 26 50 
3 17 53 54 
3 18 17 54 
3 21 14 53 
3 17 21 53 
3 28 31 35 
3 55 28 35 
3 35 34 45 
3 35 45 55 
3 56 57 40 
3 56 40 58 
3 31 30 32 
3 31 32 35 
3 25 24 16 
3 25 16 19 
3 24 27 20 
3 24 20 16 
3 59 4 7 
3 60 59 7 
3 61 8 4 
3 59 61 4 
3 39 38 0 
3 39 0 3 
3 62 63 40 
3 64 62 40 
3 65 25 19 
3 65 19 66 
3 18 54 36 
3 67 18 36 
3 68 69 70 
3 68 70 71 
3 47 22 25 
3 47 25 65 
3 19 18 67 
3 66 19 67 
3 72 73 74 
3 75 72 74 
3 63 76 77 
3 40 63 77 
3 78 79 80 
3 78 80 81 
3 82 83 84 
3 85 82 84 
3 86 87 80 
3 79 86 80 
3 82 88 62 
3 82 62 89 
3 85 84 90 
3 85 90 81 
3 76 91 87 
3 86 76 87 
3 88 92 63 
3 62 88 63 
3 63 92 91 
3 63 91 76 
