ply
format ascii 1.0
comment Created by Blender 3.0.0 - www.blender.org
element vertex 157
property float x
property float y
property float z
element face 88
property list uchar uint vertex_indices
end_header
0.000049 -0.171180 0.051463
0.037619 -0.171367 0.034929
0.036500 0.002590 0.031912
0.000049 0.002767 0.048027
0.036500 0.002590 0.031912
0.000022 -0.526320 -0.035991
-0.000060 -0.527483 0.001253
-0.034714 -0.526025 0.001237
-0.028097 -0.525605 -0.027504
0.034758 -0.526025 0.001237
0.000022 -0.526320 -0.035991
0.028176 -0.525605 -0.027504
0.000022 -0.525503 0.038462
-0.028097 -0.524974 0.029962
-0.036401 0.002590 0.031912
-0.037520 -0.171367 0.034929
-0.036401 0.002590 0.031912
0.036500 0.001789 -0.041034
0.037619 -0.172193 -0.040232
0.000049 -0.172368 -0.056766
0.036500 0.001789 -0.041034
0.000049 0.001612 -0.057149
-0.037520 -0.172193 -0.040232
-0.053889 -0.171786 -0.002651
-0.052214 0.002190 -0.004561
-0.036401 0.001789 -0.041034
-0.037520 -0.172193 -0.040232
-0.037520 -0.171367 0.034929
-0.037520 -0.171367 0.034929
-0.036401 0.002590 0.031912
-0.037520 -0.172193 -0.040232
-0.036401 0.001789 -0.041034
-0.036401 0.001789 -0.041034
0.037619 -0.171367 0.034929
0.053988 -0.171786 -0.002651
0.052313 0.002190 -0.004561
0.036500 0.002590 0.031912
0.037619 -0.171367 0.034929
0.037619 -0.172193 -0.040232
0.037619 -0.172193 -0.040232
0.036500 0.001789 -0.041034
0.028176 -0.524974 0.029962
0.034758 -0.526025 0.001237
0.050444 -0.513636 0.001101
0.035364 -0.513226 0.036476
0.028176 -0.524974 0.029962
0.035364 -0.513226 0.036476
0.050444 -0.513636 0.001101
0.053988 -0.461618 0.000530
0.037619 -0.461202 0.038111
0.035364 -0.513226 0.036476
0.035364 -0.514002 -0.034274
0.035364 -0.514002 -0.034274
0.037619 -0.462027 -0.037051
0.028176 -0.525605 -0.027504
0.028176 -0.525605 -0.027504
0.035364 -0.514002 -0.034274
0.037619 -0.461202 0.038111
0.054323 -0.335004 -0.000860
0.037843 -0.334581 0.036942
0.037619 -0.461202 0.038111
0.037843 -0.334581 0.036942
0.037619 -0.171367 0.034929
0.037843 -0.334581 0.036942
0.037843 -0.335411 -0.038662
0.037843 -0.335411 -0.038662
0.037619 -0.172193 -0.040232
0.037619 -0.462027 -0.037051
0.037619 -0.462027 -0.037051
0.037843 -0.335411 -0.038662
0.000049 -0.514154 -0.050144
0.000022 -0.526320 -0.035991
-0.028097 -0.525605 -0.027504
-0.028097 -0.525605 -0.027504
-0.035265 -0.514002 -0.034274
0.000049 -0.514154 -0.050144
-0.035265 -0.514002 -0.034274
-0.037520 -0.462027 -0.037051
0.000049 -0.462205 -0.053585
-0.037520 -0.462027 -0.037051
-0.037520 -0.462027 -0.037051
-0.037744 -0.335411 -0.038662
0.000049 -0.335584 -0.055280
-0.037744 -0.335411 -0.038662
-0.037744 -0.335411 -0.038662
-0.037520 -0.172193 -0.040232
-0.037520 -0.172193 -0.040232
-0.028097 -0.525605 -0.027504
-0.050345 -0.513636 0.001101
-0.035265 -0.514002 -0.034274
-0.028097 -0.525605 -0.027504
-0.035265 -0.514002 -0.034274
-0.050345 -0.513636 0.001101
-0.053889 -0.461618 0.000530
-0.037520 -0.462027 -0.037051
-0.035265 -0.514002 -0.034274
-0.035265 -0.513226 0.036476
-0.035265 -0.513226 0.036476
-0.037520 -0.461202 0.038111
-0.028097 -0.524974 0.029962
-0.028097 -0.524974 0.029962
-0.035265 -0.513226 0.036476
-0.037520 -0.462027 -0.037051
-0.054224 -0.335004 -0.000860
-0.037744 -0.335411 -0.038662
-0.037520 -0.462027 -0.037051
-0.037744 -0.335411 -0.038662
-0.037520 -0.172193 -0.040232
-0.037744 -0.335411 -0.038662
-0.037744 -0.334581 0.036942
-0.037744 -0.334581 0.036942
-0.037520 -0.171367 0.034929
-0.037520 -0.461202 0.038111
-0.037520 -0.461202 0.038111
-0.037744 -0.334581 0.036942
0.037619 -0.462027 -0.037051
0.035364 -0.514002 -0.034274
0.037619 -0.462027 -0.037051
0.028176 -0.525605 -0.027504
0.035364 -0.514002 -0.034274
0.028176 -0.525605 -0.027504
0.037619 -0.172193 -0.040232
0.037843 -0.335411 -0.038662
0.037619 -0.172193 -0.040232
0.037843 -0.335411 -0.038662
0.037619 -0.462027 -0.037051
0.037843 -0.335411 -0.038662
-0.037520 -0.461202 0.038111
-0.035265 -0.513226 0.036476
0.000050 -0.513029 0.052345
-0.037520 -0.461202 0.038111
0.000049 -0.461017 0.054645
-0.028097 -0.524974 0.029962
0.000022 -0.525503 0.038462
0.000050 -0.513029 0.052345
-0.035265 -0.513226 0.036476
-0.028097 -0.524974 0.029962
-0.037520 -0.171367 0.034929
-0.037744 -0.334581 0.036942
0.000050 -0.334389 0.053560
-0.037520 -0.171367 0.034929
-0.037744 -0.334581 0.036942
-0.037520 -0.461202 0.038111
-0.037744 -0.334581 0.036942
0.028176 -0.524974 0.029962
0.028176 -0.524974 0.029962
0.035364 -0.513226 0.036476
0.035364 -0.513226 0.036476
0.037619 -0.461202 0.038111
0.037619 -0.461202 0.038111
0.037619 -0.461202 0.038111
0.037843 -0.334581 0.036942
0.037843 -0.334581 0.036942
0.037843 -0.334581 0.036942
0.037619 -0.171367 0.034929
0.037619 -0.171367 0.034929
0.028176 -0.524974 0.029962
3 0 1 2
3 3 0 4
3 5 6 7
3 5 7 8
3 9 6 10
3 11 9 10
3 7 6 12
3 13 7 12
3 14 15 0
3 16 0 3
3 17 18 19
3 20 19 21
3 22 23 24
3 25 26 24
3 24 23 27
3 24 28 29
3 19 30 31
3 21 19 32
3 33 34 35
3 36 37 35
3 35 34 38
3 35 39 40
3 41 42 43
3 44 45 43
3 46 47 48
3 49 50 48
3 48 47 51
3 48 52 53
3 43 42 54
3 43 55 56
3 57 48 58
3 59 60 58
3 61 58 34
3 62 63 34
3 34 58 64
3 34 65 66
3 58 48 67
3 58 68 69
3 70 71 72
3 70 73 74
3 75 76 77
3 78 75 79
3 78 80 81
3 82 78 83
3 82 84 85
3 19 82 86
3 87 7 88
3 89 90 88
3 91 92 93
3 94 95 93
3 93 92 96
3 93 97 98
3 88 7 99
3 88 100 101
3 102 93 103
3 104 105 103
3 106 103 23
3 107 108 23
3 23 103 109
3 23 110 111
3 103 93 112
3 103 113 114
3 115 116 75
3 117 75 78
3 118 71 70
3 119 120 70
3 121 122 82
3 123 82 19
3 124 125 78
3 126 78 82
3 127 128 129
3 130 129 131
3 132 133 134
3 135 136 134
3 137 138 139
3 140 139 0
3 141 142 131
3 143 131 139
3 134 133 144
3 134 145 146
3 129 147 148
3 131 129 149
3 131 150 151
3 139 131 152
3 139 153 154
3 0 139 155
3 12 6 42
3 12 42 156
