ply
format ascii 1.0
comment VCGLIB generated
element vertex 153
property float x
property float y
property float z
property uchar red
property uchar green
property uchar blue
property uchar alpha
property float texture_u
property float texture_v
element face 88
property list uchar int vertex_indices
end_header
2.027652e-05 0.05320954 0.3313466 255 255 255 255 0.4347267 0.5
-0.03754944 0.03667453 0.331342 254 254 254 254 0.4347267 0.502
-0.03643045 0.03556651 0.5307821 254 254 254 254 0.4347267 0.502
2.026162e-05 0.05168256 0.5307821 255 255 255 255 0.4347267 0.501999795
-0.03643045 0.03556651 0.5307821 254 254 254 254 0.4347267 0.501999795437
-0.03754944 0.03667453 0.331342 254 254 254 254 0.4347267 0.501999795436859
-0.05391795 -0.0009084046 0.3313372 255 255 255 255 0.4347267 0.501999795436859131
-0.05224285 -0.0009084344 0.5307821 255 255 255 255 0.4347267 0.501999795436859130859
-0.03643045 0.03556651 0.5307821 254 254 254 254 0.4347267 0.501999795436859130859375
-0.03754944 0.03667453 0.331342 254 254 254 254 0.4347267 0.501999795436859130859375
-0.0375494 -0.03849134 0.331342 254 254 254 254 0.4347267 0.501999795436859130859375
-0.0375494 -0.03849134 0.331342 254 254 254 254 0.4347267 0.501999795436859130859375
-0.03643044 -0.03738332 0.5307822 254 254 254 254 0.4347267 0.501999795436859130859375
-0.03643044 -0.03738332 0.5307822 254 254 254 254 0.4347267 0.501999795436859130859375
-0.0375494 -0.03849134 0.331342 254 254 254 254 0.4347267 0.501999795436859130859375
2.030632e-05 -0.05502623 0.3313466 255 255 255 255 0.4347267 0.501999795436859130859375
-0.03643044 -0.03738332 0.5307822 254 254 254 254 0.4347267 0.501999795436859130859375
2.030632e-05 -0.05349928 0.5307822 255 255 255 255 0.4347267 0.501999795436859130859375
0.03759001 -0.03849131 0.331342 254 254 254 254 0.4347267 0.501999795436859130859375
0.03647101 -0.03738332 0.5307822 254 254 254 254 0.4347267 0.501999795436859130859375
0.03647101 -0.03738332 0.5307822 254 254 254 254 0.4347267 0.501999795436859130859375
0.03759001 -0.03849131 0.331342 254 254 254 254 0.4347267 0.501999795436859130859375
0.05395852 -0.0009083748 0.3313372 255 255 255 255 0.4347267 0.501999795436859130859375
0.05228339 -0.0009084344 0.5307821 255 255 255 255 0.4347267 0.501999795436859130859375
0.03647101 -0.03738332 0.5307822 254 254 254 254 0.4347267 0.501999795436859130859375
0.03759001 -0.03849131 0.331342 254 254 254 254 0.4347267 0.501999795436859130859375
0.03758999 0.03667453 0.3313419 254 254 254 254 0.4347267 0.501999795436859130859375
0.03758999 0.03667453 0.3313419 254 254 254 254 0.4347267 0.501999795436859130859375
0.03647099 0.03556651 0.5307821 254 254 254 254 0.4347267 0.501999795436859130859375
0.03647099 0.03556651 0.5307821 254 254 254 254 0.4347267 0.501999795436859130859375
0.03758999 0.03667453 0.3313419 254 254 254 254 0.4347267 0.501999795436859130859375
0.03647099 0.03556651 0.5307821 254 254 254 254 0.4347267 0.501999795436859130859375
-0.03474363 -0.000908494 0.002521859 255 255 255 255 0.4347267 0.501999795436859130859375
-9.020069e-05 -0.000908792 0.001071881 255 255 255 255 0.4347267 0.501999795436859130859375
-7.320428e-06 -0.0381375 0.002634496 255 255 255 255 0.4347267 0.501999795436859130859375
-0.02812666 -0.02964303 0.003253411 254 254 254 254 0.4347267 0.50199973583221435546875
0.03472896 -0.000908494 0.002521859 255 255 255 255 0.4347267 0.501999795436859130859375
-7.320428e-06 0.03632051 0.002634476 255 255 255 255 0.4347267 0.501999795436859130859375
0.02814652 0.02782619 0.003253396 254 254 254 254 0.4347267 0.50199973583221435546875
-0.02812666 0.02782622 0.003253396 254 254 254 254 0.4347267 0.50199973583221435546875
0.03759001 0.03667456 0.06549779 254 254 254 254 0.4347267 0.501999795436859130859375
0.03533439 0.03446862 0.01486425 254 254 254 254 0.4347267 0.501999795436859130859375
2.029142e-05 0.05033877 0.01488605 255 255 255 255 0.4347267 0.501999795436859130859375
0.03759001 0.03667456 0.06549779 254 254 254 254 0.4347267 0.501999795436859130859375
2.029142e-05 0.05320954 0.06550079 255 255 255 255 0.4347267 0.501999795436859130859375
0.02814652 0.02782619 0.003253396 254 254 254 254 0.4347267 0.50199973583221435546875
2.029142e-05 0.05033877 0.01488605 255 255 255 255 0.4347267 0.501999795436859130859375
0.03533439 0.03446862 0.01486425 254 254 254 254 0.4347267 0.501999795436859130859375
0.02814652 0.02782619 0.003253396 254 254 254 254 0.4347267 0.50199973583221435546875
0.03758999 0.03667453 0.3313419 254 254 254 254 0.4347267 0.501999795436859130859375
0.03781379 0.03689617 0.1838218 254 254 254 254 0.4347267 0.501999795436859130859375
2.027652e-05 0.05351496 0.1838289 255 255 255 255 0.4347267 0.501999795436859130859375
0.03758999 0.03667453 0.3313419 254 254 254 254 0.4347267 0.501999795436859130859375
0.03781379 0.03689617 0.1838218 254 254 254 254 0.4347267 0.501999795436859130859375
0.03759001 0.03667456 0.06549779 254 254 254 254 0.4347267 0.501999795436859130859375
0.03781379 0.03689617 0.1838218 254 254 254 254 0.4347267 0.501999795436859130859375
0.02814653 -0.02964303 0.003253411 254 254 254 254 0.4347267 0.50199973583221435546875
0.05041435 -0.0009084046 0.01484244 255 255 255 255 0.4347267 0.501999795436859130859375
0.03533439 -0.0362854 0.01486427 254 254 254 254 0.4347267 0.501999795436859130859375
0.02814653 -0.02964303 0.003253411 254 254 254 254 0.4347267 0.50199973583221435546875
0.03533439 -0.0362854 0.01486427 254 254 254 254 0.4347267 0.501999795436859130859375
0.05041435 -0.0009084046 0.01484244 255 255 255 255 0.4347267 0.501999795436859130859375
0.05395852 -0.0009083748 0.06549479 255 255 255 255 0.4347267 0.501999795436859130859375
0.03759002 -0.03849131 0.06549782 254 254 254 254 0.4347267 0.501999795436859130859375
0.03533439 -0.0362854 0.01486427 254 254 254 254 0.4347267 0.501999795436859130859375
0.03533439 0.03446862 0.01486425 254 254 254 254 0.4347267 0.501999795436859130859375
0.03533439 0.03446862 0.01486425 254 254 254 254 0.4347267 0.501999795436859130859375
0.03759001 0.03667456 0.06549779 254 254 254 254 0.4347267 0.501999795436859130859375
0.02814652 0.02782619 0.003253396 254 254 254 254 0.4347267 0.50199973583221435546875
0.02814652 0.02782619 0.003253396 254 254 254 254 0.4347267 0.50199973583221435546875
0.03533439 0.03446862 0.01486425 254 254 254 254 0.4347267 0.501999795436859130859375
0.03759002 -0.03849131 0.06549782 254 254 254 254 0.4347267 0.501999795436859130859375
0.05429352 -0.0009084046 0.1838148 255 255 255 255 0.4347267 0.501999795436859130859375
0.03781381 -0.03871295 0.1838218 254 254 254 254 0.4347267 0.501999795436859130859375
0.03759002 -0.03849131 0.06549782 254 254 254 254 0.4347267 0.501999795436859130859375
0.03781381 -0.03871295 0.1838218 254 254 254 254 0.4347267 0.501999795436859130859375
0.03759001 -0.03849131 0.331342 254 254 254 254 0.4347267 0.501999795436859130859375
0.03781381 -0.03871295 0.1838218 254 254 254 254 0.4347267 0.501999795436859130859375
0.03781379 0.03689617 0.1838218 254 254 254 254 0.4347267 0.501999795436859130859375
0.03781379 0.03689617 0.1838218 254 254 254 254 0.4347267 0.501999795436859130859375
0.03758999 0.03667453 0.3313419 254 254 254 254 0.4347267 0.501999795436859130859375
0.03759001 0.03667456 0.06549779 254 254 254 254 0.4347267 0.501999795436859130859375
0.03759001 0.03667456 0.06549779 254 254 254 254 0.4347267 0.501999795436859130859375
0.03781379 0.03689617 0.1838218 254 254 254 254 0.4347267 0.501999795436859130859375
2.030632e-05 -0.05215549 0.01488607 255 255 255 255 0.4347267 0.501999795436859130859375
0.02814653 -0.02964303 0.003253411 254 254 254 254 0.4347267 0.50199973583221435546875
0.02814653 -0.02964303 0.003253411 254 254 254 254 0.4347267 0.50199973583221435546875
0.03533439 -0.0362854 0.01486427 254 254 254 254 0.4347267 0.501999795436859130859375
2.030632e-05 -0.05215549 0.01488607 255 255 255 255 0.4347267 0.501999795436859130859375
0.03533439 -0.0362854 0.01486427 254 254 254 254 0.4347267 0.501999795436859130859375
0.03759002 -0.03849131 0.06549782 254 254 254 254 0.4347267 0.501999795436859130859375
2.030632e-05 -0.05502626 0.06550082 255 255 255 255 0.4347267 0.501999795436859130859375
0.03759002 -0.03849131 0.06549782 254 254 254 254 0.4347267 0.501999795436859130859375
0.03759002 -0.03849131 0.06549782 254 254 254 254 0.4347267 0.501999795436859130859375
0.03781381 -0.03871295 0.1838218 254 254 254 254 0.4347267 0.501999795436859130859375
2.029142e-05 -0.05533168 0.1838289 255 255 255 255 0.4347267 0.501999795436859130859375
0.03781381 -0.03871295 0.1838218 254 254 254 254 0.4347267 0.501999795436859130859375
0.03781381 -0.03871295 0.1838218 254 254 254 254 0.4347267 0.501999795436859130859375
0.03759001 -0.03849131 0.331342 254 254 254 254 0.4347267 0.501999795436859130859375
0.03759001 -0.03849131 0.331342 254 254 254 254 0.4347267 0.501999795436859130859375
-0.0375494 -0.03849134 0.06549782 254 254 254 254 0.4347267 0.501999795436859130859375
-0.03529378 -0.03628534 0.01486427 254 254 254 254 0.4347267 0.501999795436859130859375
-0.0375494 -0.03849134 0.06549782 254 254 254 254 0.4347267 0.501999795436859130859375
-0.02812666 -0.02964303 0.003253411 254 254 254 254 0.4347267 0.50199973583221435546875
-0.03529378 -0.03628534 0.01486427 254 254 254 254 0.4347267 0.501999795436859130859375
-0.02812666 -0.02964303 0.003253411 254 254 254 254 0.4347267 0.50199973583221435546875
-0.0375494 -0.03849134 0.331342 254 254 254 254 0.4347267 0.501999795436859130859375
-0.03777321 -0.03871292 0.1838218 254 254 254 254 0.4347267 0.501999795436859130859375
-0.0375494 -0.03849134 0.331342 254 254 254 254 0.4347267 0.501999795436859130859375
-0.03777321 -0.03871292 0.1838218 254 254 254 254 0.4347267 0.501999795436859130859375
-0.0375494 -0.03849134 0.06549782 254 254 254 254 0.4347267 0.501999795436859130859375
-0.03777321 -0.03871292 0.1838218 254 254 254 254 0.4347267 0.501999795436859130859375
-0.02812666 0.02782622 0.003253396 254 254 254 254 0.4347267 0.50199973583221435546875
-0.05037377 -0.0009083748 0.01484244 255 255 255 255 0.4347267 0.501999795436859130859375
-0.03529382 0.03446865 0.01486425 254 254 254 254 0.4347267 0.501999795436859130859375
-0.02812666 0.02782622 0.003253396 254 254 254 254 0.4347267 0.50199973583221435546875
-0.03529382 0.03446865 0.01486425 254 254 254 254 0.4347267 0.501999795436859130859375
-0.05037377 -0.0009083748 0.01484244 255 255 255 255 0.4347267 0.501999795436859130859375
-0.05391793 -0.0009084046 0.06549479 255 255 255 255 0.4347267 0.501999795436859130859375
-0.03754944 0.03667456 0.06549779 254 254 254 254 0.4347267 0.501999795436859130859375
-0.03529382 0.03446865 0.01486425 254 254 254 254 0.4347267 0.501999795436859130859375
-0.03529378 -0.03628534 0.01486427 254 254 254 254 0.4347267 0.501999795436859130859375
-0.03529378 -0.03628534 0.01486427 254 254 254 254 0.4347267 0.501999795436859130859375
-0.0375494 -0.03849134 0.06549782 254 254 254 254 0.4347267 0.501999795436859130859375
-0.02812666 -0.02964303 0.003253411 254 254 254 254 0.4347267 0.50199973583221435546875
-0.02812666 -0.02964303 0.003253411 254 254 254 254 0.4347267 0.50199973583221435546875
-0.03529378 -0.03628534 0.01486427 254 254 254 254 0.4347267 0.501999795436859130859375
-0.03754944 0.03667456 0.06549779 254 254 254 254 0.4347267 0.501999795436859130859375
-0.05425296 -0.0009083152 0.1838148 255 255 255 255 0.4347267 0.501999795436859130859375
-0.03777326 0.03689614 0.1838218 254 254 254 254 0.4347267 0.501999795436859130859375
-0.03754944 0.03667456 0.06549779 254 254 254 254 0.4347267 0.501999795436859130859375
-0.03777326 0.03689614 0.1838218 254 254 254 254 0.4347267 0.501999795436859130859375
-0.03754944 0.03667453 0.331342 254 254 254 254 0.4347267 0.501999795436859130859375
-0.03777326 0.03689614 0.1838218 254 254 254 254 0.4347267 0.501999795436859130859375
-0.03777321 -0.03871292 0.1838218 254 254 254 254 0.4347267 0.501999795436859130859375
-0.03777321 -0.03871292 0.1838218 254 254 254 254 0.4347267 0.501999795436859130859375
-0.0375494 -0.03849134 0.331342 254 254 254 254 0.4347267 0.501999795436859130859375
-0.0375494 -0.03849134 0.06549782 254 254 254 254 0.4347267 0.501999795436859130859375
-0.0375494 -0.03849134 0.06549782 254 254 254 254 0.4347267 0.501999795436859130859375
-0.03777321 -0.03871292 0.1838218 254 254 254 254 0.4347267 0.501999795436859130859375
-0.02812666 0.02782622 0.003253396 254 254 254 254 0.4347267 0.50199973583221435546875
-0.02812666 0.02782622 0.003253396 254 254 254 254 0.4347267 0.50199973583221435546875
-0.03529382 0.03446865 0.01486425 254 254 254 254 0.4347267 0.501999795436859130859375
-0.03529382 0.03446865 0.01486425 254 254 254 254 0.4347267 0.501999795436859130859375
-0.03754944 0.03667456 0.06549779 254 254 254 254 0.4347267 0.501999795436859130859375
-0.03754944 0.03667456 0.06549779 254 254 254 254 0.4347267 0.501999795436859130859375
-0.03754944 0.03667456 0.06549779 254 254 254 254 0.4347267 0.501999795436859130859375
-0.03777326 0.03689614 0.1838218 254 254 254 254 0.4347267 0.501999795436859130859375
-0.03777326 0.03689614 0.1838218 254 254 254 254 0.4347267 0.501999795436859130859375
-0.03777326 0.03689614 0.1838218 254 254 254 254 0.4347267 0.501999795436859130859375
-0.03754944 0.03667453 0.331342 254 254 254 254 0.4347267 0.501999795436859130859375
-0.03754944 0.03667453 0.331342 254 254 254 254 0.4347267 0.501999795436859130859375
0.02814653 -0.02964303 0.003253411 254 254 254 254 0.4347267 0.50199973583221435546875
3 0 1 2 
3 3 0 4 
3 5 6 7 
3 8 9 7 
3 7 6 10 
3 7 11 12 
3 13 14 15 
3 16 15 17 
3 15 18 19 
3 17 15 20 
3 21 22 23 
3 24 25 23 
3 23 22 26 
3 23 27 28 
3 29 30 0 
3 31 0 3 
3 32 33 34 
3 35 32 34 
3 36 33 37 
3 38 36 37 
3 37 33 32 
3 37 32 39 
3 40 41 42 
3 43 42 44 
3 45 37 46 
3 47 48 46 
3 49 50 51 
3 52 51 0 
3 53 54 44 
3 55 44 51 
3 56 36 57 
3 58 59 57 
3 60 61 62 
3 63 64 62 
3 62 61 65 
3 62 66 67 
3 57 36 68 
3 57 69 70 
3 71 62 72 
3 73 74 72 
3 75 72 22 
3 76 77 22 
3 22 72 78 
3 22 79 80 
3 72 62 81 
3 72 82 83 
3 84 34 85 
3 84 86 87 
3 88 89 90 
3 91 88 92 
3 91 93 94 
3 95 91 96 
3 95 97 98 
3 15 95 99 
3 100 101 88 
3 102 88 91 
3 103 34 84 
3 104 105 84 
3 106 107 95 
3 108 95 15 
3 109 110 91 
3 111 91 95 
3 112 32 113 
3 114 115 113 
3 116 117 118 
3 119 120 118 
3 118 117 121 
3 118 122 123 
3 113 32 124 
3 113 125 126 
3 127 118 128 
3 129 130 128 
3 131 128 6 
3 132 133 6 
3 6 128 134 
3 6 135 136 
3 128 118 137 
3 128 138 139 
3 46 37 140 
3 46 141 142 
3 42 143 144 
3 44 42 145 
3 44 146 147 
3 51 44 148 
3 51 149 150 
3 0 51 151 
3 34 33 36 
3 34 36 152 
