ply
format ascii 1.0
comment Created by Blender 3.0.0 - www.blender.org
element vertex 98
property float x
property float y
property float z
property float nx
property float ny
property float nz
property float s
property float t
property uchar red
property uchar green
property uchar blue
property uchar alpha
element face 72
property list uchar uint vertex_indices
end_header
0.086206 0.189785 0.006539 0.996796 0.070070 0.038514 0.436328 0.502000 255 255 255 255
0.099919 0.139483 -0.167374 0.921445 0.386486 -0.039125 0.436328 0.502000 254 254 254 254
0.074689 0.197598 -0.187455 0.921445 0.386486 -0.039125 0.436328 0.502000 254 254 254 254
0.074689 0.197598 -0.187455 0.967101 0.249947 -0.047334 0.436328 0.502000 254 254 254 254
0.070697 0.244439 -0.021711 0.714225 0.681387 -0.159764 0.436328 0.502000 255 255 255 255
0.000188 0.052404 -0.121702 0.376415 -0.926420 -0.002930 0.436328 0.502000 254 254 254 254
0.001071 0.053572 -0.377225 -0.004242 -0.991180 -0.132237 0.436328 0.502000 255 255 255 255
0.068930 0.081149 -0.378683 0.713309 -0.690939 -0.117374 0.436328 0.502000 255 255 255 255
0.000188 0.052404 -0.121702 0.339763 -0.940367 -0.014283 0.436328 0.502000 254 254 254 254
0.080969 0.081871 -0.139987 0.339763 -0.940367 -0.014283 0.436328 0.502000 254 254 254 254
0.002536 0.127714 -0.675359 -0.003021 -0.998810 -0.048463 0.436328 0.502000 255 255 255 255
0.002783 0.115195 -0.819898 0.398236 -0.913785 0.079806 0.436328 0.502000 255 255 255 255
0.055372 0.140958 -0.787343 0.777703 -0.627308 0.040620 0.436328 0.502000 255 255 255 255
0.060706 0.158299 -0.662599 0.818110 -0.570360 -0.073305 0.436328 0.502000 255 255 255 255
0.055372 0.140958 -0.787343 0.652699 -0.529618 -0.541704 0.436328 0.502000 255 255 255 255
0.002783 0.115195 -0.819898 0.615223 -0.576800 -0.537370 0.436328 0.502000 255 255 255 255
0.003109 0.173800 -0.882428 0.001740 -0.072329 -0.997375 0.436328 0.502000 255 255 255 255
0.061835 0.180679 -0.814347 0.687063 -0.481613 -0.543992 0.436328 0.502000 255 255 255 255
-0.000010 0.107291 0.055009 0.369060 -0.889523 0.269234 0.436328 0.502000 255 255 255 255
0.000188 0.052404 -0.121702 0.383709 -0.881741 0.274300 0.436328 0.502000 254 254 254 254
0.080969 0.081871 -0.139987 0.383709 -0.881741 0.274300 0.436328 0.502000 254 254 254 254
0.080969 0.081871 -0.139987 0.360668 -0.893857 0.266305 0.436328 0.502000 254 254 254 254
0.075758 0.125439 0.013304 0.737022 -0.637349 0.224860 0.436328 0.502000 255 255 255 255
0.061835 0.180679 -0.814347 0.638142 0.461257 -0.616413 0.436328 0.502000 255 255 255 255
0.003259 0.254637 -0.819647 0.637471 0.460616 -0.617603 0.436328 0.502000 255 255 255 255
0.050653 0.231277 -0.789666 0.851100 0.373241 -0.369121 0.436328 0.502000 255 255 255 255
0.083549 0.131575 -0.389621 0.997711 -0.008301 -0.066713 0.436328 0.502000 255 255 255 255
0.072153 0.207526 -0.663151 0.996124 0.078616 -0.039155 0.436328 0.502000 255 255 255 255
0.054405 0.260967 -0.668392 0.690023 0.723045 0.032533 0.436328 0.502000 255 255 255 255
0.062819 0.186270 -0.408859 0.755242 0.653829 0.045595 0.436328 0.502000 255 255 255 255
0.080969 0.081871 -0.139987 0.958464 -0.264077 0.107639 0.436328 0.502000 254 254 254 254
0.099919 0.139483 -0.167374 0.958464 -0.264077 0.107639 0.436328 0.502000 254 254 254 254
0.099919 0.139483 -0.167374 0.981842 -0.146794 0.119877 0.436328 0.502000 254 254 254 254
0.050653 0.231277 -0.789666 0.538194 0.814631 -0.216071 0.436328 0.502000 255 255 255 255
0.003259 0.254637 -0.819647 0.555620 0.801386 -0.221412 0.436328 0.502000 255 255 255 255
0.003121 0.296657 -0.679404 0.003693 0.999268 -0.037446 0.436328 0.502000 255 255 255 255
0.099919 0.139483 -0.167374 0.941099 0.328196 -0.080996 0.436328 0.502000 254 254 254 254
0.099919 0.139483 -0.167374 0.923582 0.377148 -0.068789 0.436328 0.502000 254 254 254 254
0.074689 0.197598 -0.187455 0.923582 0.377148 -0.068789 0.436328 0.502000 254 254 254 254
0.074689 0.197598 -0.187455 0.458998 0.885647 -0.069918 0.436328 0.502000 254 254 254 254
0.001951 0.216752 -0.422342 0.004242 0.989563 0.143864 0.436328 0.502000 255 255 255 255
0.074689 0.197598 -0.187455 0.404340 0.913175 -0.050722 0.436328 0.502000 254 254 254 254
0.001347 0.229654 -0.194985 0.404340 0.913175 -0.050722 0.436328 0.502000 254 254 254 254
0.061835 0.180679 -0.814347 0.997742 0.019379 -0.064119 0.436328 0.502000 255 255 255 255
0.054405 0.260967 -0.668392 0.946898 0.304270 -0.103763 0.436328 0.502000 255 255 255 255
0.080969 0.081871 -0.139987 0.956572 -0.287576 -0.047365 0.436328 0.502000 254 254 254 254
0.080969 0.081871 -0.139987 0.939970 -0.336375 -0.057253 0.436328 0.502000 254 254 254 254
0.099919 0.139483 -0.167374 0.939970 -0.336375 -0.057253 0.436328 0.502000 254 254 254 254
0.074689 0.197598 -0.187455 0.409375 0.880490 -0.238960 0.436328 0.502000 254 254 254 254
0.001347 0.229654 -0.194985 0.409375 0.880490 -0.238960 0.436328 0.502000 254 254 254 254
0.001347 0.229654 -0.194985 0.347942 0.912015 -0.217078 0.436328 0.502000 254 254 254 254
0.001037 0.279040 0.012000 0.347942 0.912015 -0.217078 0.436328 0.502000 255 255 255 255
-0.072371 0.198384 -0.187862 -0.917051 0.396283 -0.044282 0.436328 0.502000 254 254 254 254
-0.098329 0.140542 -0.167922 -0.917051 0.396283 -0.044282 0.436328 0.502000 254 254 254 254
-0.085055 0.190705 0.006063 -0.996185 0.080782 0.032899 0.436328 0.502000 255 255 255 255
-0.068803 0.245189 -0.022099 -0.705985 0.689016 -0.163732 0.436328 0.502000 255 255 255 255
-0.072371 0.198384 -0.187862 -0.964080 0.260292 -0.052736 0.436328 0.502000 254 254 254 254
-0.066514 0.081782 -0.379022 -0.718955 -0.684225 -0.122044 0.436328 0.502000 255 255 255 255
0.000188 0.052404 -0.121702 -0.385052 -0.922849 -0.005524 0.436328 0.502000 254 254 254 254
-0.080158 0.082734 -0.140434 -0.349773 -0.936674 -0.016236 0.436328 0.502000 254 254 254 254
0.000188 0.052404 -0.121702 -0.349773 -0.936674 -0.016236 0.436328 0.502000 254 254 254 254
-0.049759 0.141317 -0.787554 -0.782128 -0.621967 0.037507 0.436328 0.502000 255 255 255 255
0.002783 0.115195 -0.819898 -0.404767 -0.911039 0.078219 0.436328 0.502000 255 255 255 255
-0.055474 0.158696 -0.662832 -0.821436 -0.564837 -0.078372 0.436328 0.502000 255 255 255 255
0.002783 0.115195 -0.819898 -0.616993 -0.572588 -0.539842 0.436328 0.502000 255 255 255 255
-0.049759 0.141317 -0.787554 -0.654134 -0.525163 -0.544298 0.436328 0.502000 255 255 255 255
-0.055842 0.181081 -0.814583 -0.688162 -0.476913 -0.546739 0.436328 0.502000 255 255 255 255
-0.080158 0.082734 -0.140434 -0.394696 -0.877560 0.272134 0.436328 0.502000 254 254 254 254
0.000188 0.052404 -0.121702 -0.394696 -0.877560 0.272134 0.436328 0.502000 254 254 254 254
-0.000010 0.107291 0.055009 -0.380108 -0.885495 0.267129 0.436328 0.502000 255 255 255 255
-0.075340 0.126251 0.012884 -0.745109 -0.629322 0.220710 0.436328 0.502000 255 255 255 255
-0.080158 0.082734 -0.140434 -0.371746 -0.889889 0.264260 0.436328 0.502000 254 254 254 254
0.003259 0.254637 -0.819647 -0.631825 0.464949 -0.620136 0.436328 0.502000 255 255 255 255
-0.055842 0.181081 -0.814583 -0.899625 0.253151 -0.355754 0.436328 0.502000 255 255 255 255
-0.044414 0.231602 -0.789856 -0.847041 0.379040 -0.372539 0.436328 0.502000 255 255 255 255
-0.048450 0.261319 -0.668599 -0.817835 0.570666 0.073550 0.436328 0.502000 255 255 255 255
-0.066583 0.208000 -0.663429 -0.995300 0.085330 -0.045167 0.436328 0.502000 255 255 255 255
-0.080609 0.132344 -0.390033 -0.997284 0.000610 -0.073489 0.436328 0.502000 255 255 255 255
-0.059264 0.186840 -0.409164 -0.749596 0.660634 0.040437 0.436328 0.502000 255 255 255 255
-0.098329 0.140542 -0.167922 -0.961852 -0.253731 0.102237 0.436328 0.502000 254 254 254 254
-0.080158 0.082734 -0.140434 -0.961852 -0.253731 0.102237 0.436328 0.502000 254 254 254 254
-0.098329 0.140542 -0.167922 -0.984039 -0.136204 0.114353 0.436328 0.502000 254 254 254 254
0.003259 0.254637 -0.819647 -0.549242 0.805139 -0.223640 0.436328 0.502000 255 255 255 255
-0.044414 0.231602 -0.789856 -0.531754 0.818262 -0.218207 0.436328 0.502000 255 255 255 255
-0.048450 0.261319 -0.668599 -0.570818 0.788110 -0.230262 0.436328 0.502000 255 255 255 255
-0.098329 0.140542 -0.167922 -0.937590 0.336589 -0.087222 0.436328 0.502000 254 254 254 254
-0.072371 0.198384 -0.187862 -0.919126 0.386761 -0.074587 0.436328 0.502000 254 254 254 254
-0.098329 0.140542 -0.167922 -0.919126 0.386761 -0.074587 0.436328 0.502000 254 254 254 254
-0.072371 0.198384 -0.187862 -0.450484 0.889767 -0.073092 0.436328 0.502000 254 254 254 254
0.001347 0.229654 -0.194985 -0.394299 0.917417 -0.053102 0.436328 0.502000 254 254 254 254
-0.072371 0.198384 -0.187862 -0.394299 0.917417 -0.053102 0.436328 0.502000 254 254 254 254
-0.080158 0.082734 -0.140434 -0.958770 -0.278939 -0.053713 0.436328 0.502000 254 254 254 254
-0.098329 0.140542 -0.167922 -0.943052 -0.326487 -0.063173 0.436328 0.502000 254 254 254 254
-0.080158 0.082734 -0.140434 -0.943052 -0.326487 -0.063173 0.436328 0.502000 254 254 254 254
0.001347 0.229654 -0.194985 -0.398633 0.884793 -0.241249 0.436328 0.502000 254 254 254 254
-0.072371 0.198384 -0.187862 -0.398633 0.884793 -0.241249 0.436328 0.502000 254 254 254 254
0.001037 0.279040 0.012000 -0.336894 0.915708 -0.218970 0.436328 0.502000 255 255 255 255
0.001347 0.229654 -0.194985 -0.336894 0.915708 -0.218970 0.436328 0.502000 254 254 254 254
3 0 1 2
3 0 3 4
3 5 6 7
3 8 7 9
3 10 11 12
3 10 12 13
3 14 15 16
3 14 16 17
3 18 19 20
3 18 21 22
3 23 16 24
3 25 23 24
3 26 27 28
3 26 28 29
3 22 30 31
3 22 32 0
3 28 33 34
3 28 34 35
3 36 26 29
3 37 29 38
3 39 29 40
3 41 40 42
3 29 28 35
3 29 35 40
3 6 10 13
3 6 13 7
3 27 43 25
3 27 25 44
3 7 13 27
3 7 27 26
3 13 12 43
3 13 43 27
3 45 7 26
3 46 26 47
3 4 48 49
3 4 50 51
3 52 53 54
3 55 56 54
3 57 6 58
3 59 57 60
3 61 62 10
3 63 61 10
3 16 64 65
3 66 16 65
3 67 68 69
3 70 71 69
3 72 16 73
3 72 73 74
3 75 76 77
3 78 75 77
3 79 80 70
3 54 81 70
3 82 83 84
3 35 82 84
3 78 77 85
3 86 78 87
3 40 78 88
3 89 40 90
3 35 75 78
3 40 35 78
3 63 10 6
3 57 63 6
3 74 73 76
3 75 74 76
3 76 63 57
3 77 76 57
3 73 61 63
3 76 73 63
3 77 57 91
3 92 77 93
3 94 95 55
3 96 97 55
