ply
format ascii 1.0
comment VCGLIB generated
element vertex 98
property float x
property float y
property float z
property float texture_u
property float texture_v
element face 72
property list uchar int vertex_indices
end_header
0.0856317 0.3798234 0.5885586 0.4363276 0.5
0.09912586 0.5369783 0.5012276 0.4363276 0.502
0.07353131 0.5690573 0.5537773 0.4363276 0.502
0.07353131 0.5690573 0.5537773 0.4363276 0.501999795
0.06975136 0.4188374 0.6360261 0.4363276 0.501999735832
1.390503e-11 0.4766068 0.4271969 0.4363276 0.501999795436859
4.888296e-10 0.6572083 0.3227029 0.4363276 0.501999795436859131
0.06772331 0.6665392 0.348805 0.4363276 0.501999795436859130859
1.390503e-11 0.4766068 0.4271969 0.4363276 0.501999795436859130859375
0.08056484 0.4993241 0.4515622 0.4363276 0.501999795436859130859375
1.601553e-09 0.8129948 0.1975311 0.4363276 0.501999795436859130859375
1.602567e-09 0.9375785 0.1231861 0.4363276 0.501999795436859130859375
0.05256626 0.9197047 0.1606893 0.4363276 0.50199973583221435546875
0.05809056 0.8150542 0.2307456 0.4363276 0.501999795436859130859375
0.05256626 0.9197047 0.1606893 0.4363276 0.50199973583221435546875
1.602567e-09 0.9375785 0.1231861 0.4363276 0.501999795436859130859375
1.652087e-09 1.019416 0.1486251 0.4363276 0.501999795436859130859375
0.05883946 0.9613578 0.1846564 0.4363276 0.501999795436859130859375
1.424884e-10 0.3157724 0.5179826 0.4363276 0.501999795436859130859375
1.390503e-11 0.4766068 0.4271969 0.4363276 0.501999795436859130859375
0.08056484 0.4993241 0.4515622 0.4363276 0.501999795436859130859375
0.08056484 0.4993241 0.4515622 0.4363276 0.501999795436859130859375
0.07555067 0.3601327 0.5271907 0.4363276 0.50199973583221435546875
0.05883946 0.9613578 0.1846564 0.4363276 0.501999795436859130859375
1.709451e-09 0.9982107 0.2487568 0.4363276 0.501999795436859130859375
0.04753366 0.9611965 0.2409289 0.4363276 0.50199973583221435546875
0.08208007 0.6929176 0.3948873 0.4363276 0.501999795436859130859375
0.06936827 0.837072 0.2748217 0.4363276 0.501999795436859130859375
0.0514279 0.8650522 0.3205777 0.4363276 0.501999795436859130859375
0.06104238 0.7259358 0.4406609 0.4363276 0.501999795436859130859375
0.08056484 0.4993241 0.4515622 0.4363276 0.501999795436859130859375
0.09912586 0.5369783 0.5012276 0.4363276 0.501999795436859130859375
0.09912586 0.5369783 0.5012276 0.4363276 0.501999795436859130859375
0.04753366 0.9611965 0.2409289 0.4363276 0.50199973583221435546875
1.709451e-09 0.9982107 0.2487568 0.4363276 0.501999795436859130859375
1.731369e-09 0.8903669 0.347771 0.4363276 0.501999795436859130859375
0.09912586 0.5369783 0.5012276 0.4363276 0.501999795436859130859375
0.09912586 0.5369783 0.5012276 0.4363276 0.501999795436859130859375
0.07353131 0.5690573 0.5537773 0.4363276 0.501999795436859130859375
0.07353131 0.5690573 0.5537773 0.4363276 0.501999795436859130859375
5.39662e-10 0.7483644 0.4663993 0.4363276 0.501999795436859130859375
0.07353131 0.5690573 0.5537773 0.4363276 0.501999795436859130859375
2.846273e-11 0.5840318 0.5841331 0.4363276 0.501999795436859130859375
0.05883946 0.9613578 0.1846564 0.4363276 0.501999795436859130859375
0.0514279 0.8650522 0.3205777 0.4363276 0.501999795436859130859375
0.08056484 0.4993241 0.4515622 0.4363276 0.501999795436859130859375
0.08056484 0.4993241 0.4515622 0.4363276 0.501999795436859130859375
0.09912586 0.5369783 0.5012276 0.4363276 0.501999795436859130859375
0.07353131 0.5690573 0.5537773 0.4363276 0.501999795436859130859375
2.846273e-11 0.5840318 0.5841331 0.4363276 0.501999795436859130859375
2.846273e-11 0.5840318 0.5841331 0.4363276 0.501999795436859130859375
1.688581e-10 0.3928427 0.6766008 0.4363276 0.501999795436859130859375
-0.07353131 0.5690573 0.5537773 0.4363276 0.501999795436859130859375
-0.09912586 0.5369783 0.5012276 0.4363276 0.501999795436859130859375
-0.0856317 0.3798234 0.5885586 0.4363276 0.501999795436859130859375
-0.06975136 0.4188374 0.6360261 0.4363276 0.50199973583221435546875
-0.07353131 0.5690573 0.5537773 0.4363276 0.501999795436859130859375
-0.06772331 0.6665392 0.348805 0.4363276 0.501999795436859130859375
1.390503e-11 0.4766068 0.4271969 0.4363276 0.501999795436859130859375
-0.08056484 0.4993241 0.4515622 0.4363276 0.501999795436859130859375
1.390503e-11 0.4766068 0.4271969 0.4363276 0.501999795436859130859375
-0.05256626 0.9197047 0.1606893 0.4363276 0.50199973583221435546875
1.602567e-09 0.9375785 0.1231861 0.4363276 0.501999795436859130859375
-0.05809056 0.8150542 0.2307456 0.4363276 0.501999795436859130859375
1.602567e-09 0.9375785 0.1231861 0.4363276 0.501999795436859130859375
-0.05256626 0.9197047 0.1606893 0.4363276 0.50199973583221435546875
-0.05883946 0.9613578 0.1846564 0.4363276 0.501999795436859130859375
-0.08056484 0.4993241 0.4515622 0.4363276 0.501999795436859130859375
1.390503e-11 0.4766068 0.4271969 0.4363276 0.501999795436859130859375
1.424884e-10 0.3157724 0.5179826 0.4363276 0.501999795436859130859375
-0.07555067 0.3601327 0.5271907 0.4363276 0.50199973583221435546875
-0.08056484 0.4993241 0.4515622 0.4363276 0.501999795436859130859375
1.709451e-09 0.9982107 0.2487568 0.4363276 0.501999795436859130859375
-0.05883946 0.9613578 0.1846564 0.4363276 0.501999795436859130859375
-0.04753366 0.9611965 0.2409289 0.4363276 0.50199973583221435546875
-0.0514279 0.8650522 0.3205777 0.4363276 0.501999795436859130859375
-0.06936827 0.837072 0.2748217 0.4363276 0.501999795436859130859375
-0.08208007 0.6929176 0.3948873 0.4363276 0.501999795436859130859375
-0.06104238 0.7259358 0.4406609 0.4363276 0.501999795436859130859375
-0.09912586 0.5369783 0.5012276 0.4363276 0.501999795436859130859375
-0.08056484 0.4993241 0.4515622 0.4363276 0.501999795436859130859375
-0.09912586 0.5369783 0.5012276 0.4363276 0.501999795436859130859375
1.709451e-09 0.9982107 0.2487568 0.4363276 0.501999795436859130859375
-0.04753366 0.9611965 0.2409289 0.4363276 0.50199973583221435546875
-0.0514279 0.8650522 0.3205777 0.4363276 0.501999795436859130859375
-0.09912586 0.5369783 0.5012276 0.4363276 0.501999795436859130859375
-0.07353131 0.5690573 0.5537773 0.4363276 0.501999795436859130859375
-0.09912586 0.5369783 0.5012276 0.4363276 0.501999795436859130859375
-0.07353131 0.5690573 0.5537773 0.4363276 0.501999795436859130859375
2.846273e-11 0.5840318 0.5841331 0.4363276 0.501999795436859130859375
-0.07353131 0.5690573 0.5537773 0.4363276 0.501999795436859130859375
-0.08056484 0.4993241 0.4515622 0.4363276 0.501999795436859130859375
-0.09912586 0.5369783 0.5012276 0.4363276 0.501999795436859130859375
-0.08056484 0.4993241 0.4515622 0.4363276 0.501999795436859130859375
2.846273e-11 0.5840318 0.5841331 0.4363276 0.501999795436859130859375
-0.07353131 0.5690573 0.5537773 0.4363276 0.501999795436859130859375
1.688581e-10 0.3928427 0.6766008 0.4363276 0.501999795436859130859375
2.846273e-11 0.5840318 0.5841331 0.4363276 0.501999795436859130859375
3 0 1 2 
3 0 3 4 
3 5 6 7 
3 8 7 9 
3 10 11 12 
3 10 12 13 
3 14 15 16 
3 14 16 17 
3 18 19 20 
3 18 21 22 
3 23 16 24 
3 25 23 24 
3 26 27 28 
3 26 28 29 
3 22 30 31 
3 22 32 0 
3 28 33 34 
3 28 34 35 
3 36 26 29 
3 37 29 38 
3 39 29 40 
3 41 40 42 
3 29 28 35 
3 29 35 40 
3 6 10 13 
3 6 13 7 
3 27 43 25 
3 27 25 44 
3 7 13 27 
3 7 27 26 
3 13 12 43 
3 13 43 27 
3 45 7 26 
3 46 26 47 
3 4 48 49 
3 4 50 51 
3 52 53 54 
3 55 56 54 
3 57 6 58 
3 59 57 60 
3 61 62 10 
3 63 61 10 
3 16 64 65 
3 66 16 65 
3 67 68 69 
3 70 71 69 
3 72 16 73 
3 72 73 74 
3 75 76 77 
3 78 75 77 
3 79 80 70 
3 54 81 70 
3 82 83 84 
3 35 82 84 
3 78 77 85 
3 86 78 87 
3 40 78 88 
3 89 40 90 
3 35 75 78 
3 40 35 78 
3 63 10 6 
3 57 63 6 
3 74 73 76 
3 75 74 76 
3 76 63 57 
3 77 76 57 
3 73 61 63 
3 76 73 63 
3 77 57 91 
3 92 77 93 
3 94 95 55 
3 96 97 55 
