ply
format ascii 1.0
comment VCGLIB generated
element vertex 66
property float x
property float y
property float z
property float texture_u
property float texture_v
element face 32
property list uchar int vertex_indices
end_header
0.0856317 0.3798234 0.5885586 0.4363276 0.5
0.09912586 0.5369783 0.5012276 0.4363276 0.502
0.07353131 0.5690573 0.5537773 0.4363276 0.502
0.07353131 0.5690573 0.5537773 0.4363276 0.501999795
0.06975136 0.4188374 0.6360261 0.4363276 0.501999735832
1.390503e-11 0.4766068 0.4271969 0.4363276 0.501999795436859
4.888296e-10 0.6572083 0.3227029 0.4363276 0.501999795436859131
0.06772331 0.6665392 0.348805 0.4363276 0.501999795436859130859
1.390503e-11 0.4766068 0.4271969 0.4363276 0.501999795436859130859375
0.08056484 0.4993241 0.4515622 0.4363276 0.501999795436859130859375
1.424884e-10 0.3157724 0.5179826 0.4363276 0.501999795436859130859375
1.390503e-11 0.4766068 0.4271969 0.4363276 0.501999795436859130859375
0.08056484 0.4993241 0.4515622 0.4363276 0.501999795436859130859375
0.08056484 0.4993241 0.4515622 0.4363276 0.501999795436859130859375
0.07555067 0.3601327 0.5271907 0.4363276 0.50199973583221435546875
0.08056484 0.4993241 0.4515622 0.4363276 0.501999795436859130859375
0.09912586 0.5369783 0.5012276 0.4363276 0.501999795436859130859375
0.09912586 0.5369783 0.5012276 0.4363276 0.501999795436859130859375
0.09912586 0.5369783 0.5012276 0.4363276 0.501999795436859130859375
0.08208007 0.6929176 0.3948873 0.4363276 0.501999795436859130859375
0.06104238 0.7259358 0.4406609 0.4363276 0.501999795436859130859375
0.09912586 0.5369783 0.5012276 0.4363276 0.501999795436859130859375
0.07353131 0.5690573 0.5537773 0.4363276 0.501999795436859130859375
0.07353131 0.5690573 0.5537773 0.4363276 0.501999795436859130859375
5.39662e-10 0.7483644 0.4663993 0.4363276 0.501999795436859130859375
0.07353131 0.5690573 0.5537773 0.4363276 0.501999795436859130859375
2.846273e-11 0.5840318 0.5841331 0.4363276 0.501999795436859130859375
0.08056484 0.4993241 0.4515622 0.4363276 0.501999795436859130859375
0.08056484 0.4993241 0.4515622 0.4363276 0.501999795436859130859375
0.09912586 0.5369783 0.5012276 0.4363276 0.501999795436859130859375
0.07353131 0.5690573 0.5537773 0.4363276 0.501999795436859130859375
2.846273e-11 0.5840318 0.5841331 0.4363276 0.501999795436859130859375
2.846273e-11 0.5840318 0.5841331 0.4363276 0.501999795436859130859375
1.688581e-10 0.3928427 0.6766008 0.4363276 0.501999795436859130859375
-0.07353131 0.5690573 0.5537773 0.4363276 0.501999795436859130859375
-0.09912586 0.5369783 0.5012276 0.4363276 0.501999795436859130859375
-0.0856317 0.3798234 0.5885586 0.4363276 0.501999795436859130859375
-0.06975136 0.4188374 0.6360261 0.4363276 0.50199973583221435546875
-0.07353131 0.5690573 0.5537773 0.4363276 0.501999795436859130859375
-0.06772331 0.6665392 0.348805 0.4363276 0.501999795436859130859375
1.390503e-11 0.4766068 0.4271969 0.4363276 0.501999795436859130859375
-0.08056484 0.4993241 0.4515622 0.4363276 0.501999795436859130859375
1.390503e-11 0.4766068 0.4271969 0.4363276 0.501999795436859130859375
-0.08056484 0.4993241 0.4515622 0.4363276 0.501999795436859130859375
1.390503e-11 0.4766068 0.4271969 0.4363276 0.501999795436859130859375
1.424884e-10 0.3157724 0.5179826 0.4363276 0.501999795436859130859375
-0.07555067 0.3601327 0.5271907 0.4363276 0.50199973583221435546875
-0.08056484 0.4993241 0.4515622 0.4363276 0.501999795436859130859375
-0.09912586 0.5369783 0.5012276 0.4363276 0.501999795436859130859375
-0.08056484 0.4993241 0.4515622 0.4363276 0.501999795436859130859375
-0.09912586 0.5369783 0.5012276 0.4363276 0.501999795436859130859375
-0.06104238 0.7259358 0.4406609 0.4363276 0.501999795436859130859375
-0.08208007 0.6929176 0.3948873 0.4363276 0.501999795436859130859375
-0.09912586 0.5369783 0.5012276 0.4363276 0.501999795436859130859375
-0.07353131 0.5690573 0.5537773 0.4363276 0.501999795436859130859375
-0.09912586 0.5369783 0.5012276 0.4363276 0.501999795436859130859375
-0.07353131 0.5690573 0.5537773 0.4363276 0.501999795436859130859375
2.846273e-11 0.5840318 0.5841331 0.4363276 0.501999795436859130859375
-0.07353131 0.5690573 0.5537773 0.4363276 0.501999795436859130859375
-0.08056484 0.4993241 0.4515622 0.4363276 0.501999795436859130859375
-0.09912586 0.5369783 0.5012276 0.4363276 0.501999795436859130859375
-0.08056484 0.4993241 0.4515622 0.4363276 0.501999795436859130859375
2.846273e-11 0.5840318 0.5841331 0.4363276 0.501999795436859130859375
-0.07353131 0.5690573 0.5537773 0.4363276 0.501999795436859130859375
1.688581e-10 0.3928427 0.6766008 0.4363276 0.501999795436859130859375
2.846273e-11 0.5840318 0.5841331 0.4363276 0.501999795436859130859375
3 0 1 2 
3 0 3 4 
3 5 6 7 
3 8 7 9 
3 10 11 12 
3 10 13 14 
3 14 15 16 
3 14 17 0 
3 18 19 20 
3 21 20 22 
3 23 20 24 
3 25 24 26 
3 27 7 19 
3 28 19 29 
3 4 30 31 
3 4 32 33 
3 34 35 36 
3 37 38 36 
3 39 6 40 
3 41 39 42 
3 43 44 45 
3 46 47 45 
3 48 49 46 
3 36 50 46 
3 51 52 53 
3 54 51 55 
3 24 51 56 
3 57 24 58 
3 52 39 59 
3 60 52 61 
3 62 63 37 
3 64 65 37 
