ply
format ascii 1.0
comment VCGLIB generated
element vertex 48
property float x
property float y
property float z
property float texture_u
property float texture_v
element face 92
property list uchar int vertex_indices
end_header
0.2371502 1.062053 -4.085559 0.8694609 0.5
-0.133095 0.4612252 -4.517539 0.9877284 0.447
-0.3662066 1.043009 -4.116539 0.8843137 0.321235
0.6757851 0.6609775 -4.134867 0.8888378 0.659536362
0.2457094 -0.008526504 -4.508765 0.986486 0.602327644825
0.9276686 0.2003837 -4.055305 0.87386 0.788190066814423
0.9710588 -0.3195126 -3.908224 0.8410228 0.853176891803741455
0.584682 -0.7061434 -4.012538 0.8760265 0.786325991153717041016
-0.3352938 -0.6084888 -4.348954 0.9548895 0.5025827884674072265625
-0.5491135 0.03833398 -4.475255 0.9843182 0.375102579593658447265625
-1.147712 0.4905981 -3.938762 0.85122 0.14143256843090057373046875
-1.177276 -0.04276729 -3.990214 0.8698271 0.19497115910053253173828125
-0.8803625 0.9259746 -3.957481 0.8456544 0.17897449433803558349609375
-0.3840365 1.509247 -2.948163 0.593309 0.2586574256420135498046875
0.4450579 1.507103 -2.101374 0.3823459 0.501809537410736083984375
0.9729919 1.020219 -1.279799 0.2077768 0.7265832424163818359375
1.046954 0.9694048 -2.971448 0.5996479 0.7364633083343505859375
1.441851 0.3683015 -2.082994 0.3892599 0.92961680889129638671875
0.1101003 -0.6699567 -0.3964949 0.07252604 0.669208586215972900390625
0.2019572 -1.174079 -1.580295 0.2891018 0.74533927440643310546875
0.9366412 -0.9764652 -2.00303 0.3887777 0.92949903011322021484375
-0.3568702 -0.6421212 -0.3708115 0.06800836 0.508100032806396484375
0.3198161 1.124578 -0.4699783 0.06742428 0.508113205432891845703125
-0.1461139 1.150686 -0.4656925 0.06833962 0.3477661609649658203125
0.1857901 0.5895435 -0.06808853 0.01238941 0.524112045764923095703125
-0.3008149 1.543066 -1.704283 0.2874151 0.2615099847316741943359375
1.349343 0.2832819 -3.117151 0.6434677 0.904266655445098876953125
1.443633 -0.4146054 -2.297403 0.4528847 0.993042469024658203125
0.2101011 -1.258602 -2.833914 0.5975533 0.736699283123016357421875
0.08916378 -0.9007106 -4.044387 0.8888385 0.659535944461822509765625
0.8832779 -0.9574658 -3.045262 0.6434677 0.90426671504974365234375
-0.526195 -1.00917 -3.622132 0.7921926 0.4932463169097900390625
-0.9322903 -0.5164285 -4.031521 0.8853531 0.3216991126537322998046875
0.798924 0.5347103 -0.4360819 0.07598426 0.740371227264404296875
0.6591167 -0.3159165 -0.4473476 0.08320681 0.804653167724609375
-1.126389 1.315851 -2.282658 0.4385055 0.07515893876552581787109375
-1.488457 0.6378748 -3.031363 0.63011 0.0259941183030605316162109375
-0.5637636 -1.173716 -1.961777 0.3862765 0.5017375946044921875
-1.220746 -0.7201977 -2.815194 0.5923607 0.25858843326568603515625
-1.534637 -0.04775953 -3.014482 0.6348085 0.08908320963382720947265625
-1.526927 0.7136238 -2.082869 0.3983563 0.0052839540876448154449462890625
-0.5621099 0.9461867 -0.4846268 0.07589868 0.2284140884876251220703125
-0.887712 0.2876799 -0.4186001 0.07709599 0.2113468348979949951171875
-0.4204693 0.2718889 -0.05932045 0.01285363 0.3843457698822021484375
-1.563128 -0.03517711 -1.98038 0.3821064 0.07360161840915679931640625
0.1932211 -0.1098523 -0.06183052 0.01517056 0.6130237579345703125
-1.133593 -0.6737633 -1.579089 0.2882045 0.2614009380340576171875
-0.7249277 -0.3510384 -0.3891659 0.06986375 0.346570551395416259765625
3 0 1 2 
3 3 1 0 
3 3 4 1 
3 5 4 3 
3 6 4 5 
3 7 4 6 
3 8 4 7 
3 8 9 4 
3 10 9 11 
3 10 12 9 
3 13 0 2 
3 13 14 0 
3 15 16 14 
3 15 17 16 
3 18 19 20 
3 18 21 19 
3 22 23 24 
3 22 25 23 
3 14 25 22 
3 14 13 25 
3 17 26 16 
3 27 26 17 
3 28 29 30 
3 31 29 28 
3 31 8 29 
3 32 8 31 
3 22 15 14 
3 22 33 15 
3 24 33 22 
3 20 27 34 
3 12 13 2 
3 12 35 13 
3 36 35 12 
3 31 37 38 
3 28 37 31 
3 20 19 28 
3 20 30 27 
3 28 30 20 
3 38 32 31 
3 39 32 38 
3 39 11 32 
3 36 11 39 
3 36 10 11 
3 12 10 36 
3 40 41 35 
3 42 41 40 
3 42 43 41 
3 37 19 21 
3 37 28 19 
3 44 39 38 
3 40 39 44 
3 35 25 13 
3 35 23 25 
3 41 23 35 
3 41 24 23 
3 43 24 41 
3 15 33 17 
3 45 34 33 
3 34 18 20 
3 34 45 18 
3 46 44 38 
3 47 44 46 
3 47 42 44 
3 37 46 38 
3 21 46 37 
3 21 47 46 
3 7 30 29 
3 7 6 30 
3 6 27 30 
3 6 26 27 
3 5 26 6 
3 5 3 26 
3 16 0 14 
3 33 27 17 
3 33 34 27 
3 1 12 2 
3 1 9 12 
3 1 4 9 
3 8 7 29 
3 18 45 21 
3 24 43 45 
3 47 43 42 
3 21 43 47 
3 21 45 43 
3 16 3 0 
3 26 3 16 
3 36 40 35 
3 36 39 40 
3 9 32 11 
3 9 8 32 
3 40 44 42 
3 33 24 45 
