ply
format ascii 1.0
comment VCGLIB generated
element vertex 36
property float x
property float y
property float z
property float texture_u
property float texture_v
element face 68
property list uchar int vertex_indices
end_header
1.548208 -0.1855774 2.128246 0.23078 0.7
-0.6616168 -0.29289 2.286897 0.243542 0.742
1.095567 -1.091046 1.608552 0.1136154 0.616005
-1.04921 1.482929 2.844164 0.434673 0.857642889
-1.207653 -0.9443833 1.623756 0.1891654 0.583420395851
-1.920626 1.250003 1.775241 0.4411834 0.559306859970093
-1.803879 4.958327 0.4287 0.8394292 0.213117867708206177
-1.321792 2.633358 0.04164648 0.582374 0.0137280002236366271973
-2.106623 1.849893 0.377214 0.5136795 0.188769966363906860351562
-1.078193 5.352218 0.2448139 0.8892553 0.068635873496532440185546875
0.6645288 5.56328 0.2442122 0.8651274 0.1039641797542572021484375
-1.796917 4.755759 1.702188 0.8216974 0.52559101581573486328125
-1.049218 5.188848 2.421262 0.9119074 0.7883889675140380859375
-1.074374 5.85977 1.30142 0.9643497 0.41695117950439453125
-1.493361 3.364459 2.619637 0.6780633 0.800019204616546630859375
-0.7004957 3.611867 2.988168 0.6869045 0.98609602451324462890625
0.8877554 1.784198 2.971488 0.4127368 0.934364616870880126953125
0.537179 4.453535 2.916448 0.7709665 0.96038830280303955078125
1.926579 2.369171 2.620676 0.4981972 0.78558504581451416015625
2.302662 0.4935848 0.995831 0.2796506 0.37803661823272705078125
1.587714 -0.9145296 0.5605283 0.1427069 0.28608834743499755859375
0.4720006 -1.736416 0.475698 0.02090714 0.2998979389667510986328125
-0.5294304 -1.809795 0.343533 0.0598273 0.26521778106689453125
-0.329689 -1.515911 0.01270437 0.07821304 0.013728000223636627197265625
0.02553892 -1.707386 1.274505 0.04664129 0.557224571704864501953125
0.8075604 -1.281406 0.01278734 0.09095186 0.0180339030921459197998046875
-2.160565 4.09922 1.029628 0.7544424 0.365762412548065185546875
0.3395004 6.038619 1.171048 0.951656 0.403752803802490234375
1.256942 4.888937 2.346092 0.7855356 0.738572597503662109375
1.7891 5.002573 0.9244947 0.7782156 0.344420850276947021484375
0.4755988 5.594615 2.251904 0.9328699 0.76197052001953125
2.594916 2.721971 1.003168 0.5209712 0.364096701145172119140625
2.095971 3.970916 0.2956109 0.6706275 0.1583585441112518310546875
-1.395229 -0.6770068 0.265079 0.2242122 0.16305528581142425537109375
-1.378397 -1.08144 0.9042301 0.1837487 0.385036408901214599609375
2.089818 1.021622 0.09431982 0.3478912 0.13282053172588348388671875
3 0 1 2 
3 3 4 1 
3 5 4 3 
3 6 7 8 
3 9 7 6 
3 9 10 7 
3 11 12 13 
3 14 12 11 
3 14 15 12 
3 16 17 15 
3 16 18 17 
3 0 19 18 
3 20 19 0 
3 21 22 23 
3 2 24 21 
3 20 21 25 
3 16 3 0 
3 11 26 14 
3 6 26 11 
3 13 9 6 
3 13 10 9 
3 27 10 13 
3 28 29 30 
3 31 32 29 
3 33 8 7 
3 33 34 8 
3 5 34 4 
3 5 8 34 
3 10 35 7 
3 10 32 35 
3 10 29 32 
3 27 29 10 
3 13 30 27 
3 13 12 30 
3 7 23 33 
3 7 35 23 
3 32 31 35 
3 29 28 31 
3 33 22 34 
3 33 23 22 
3 35 25 23 
3 28 18 31 
3 30 17 28 
3 30 12 17 
3 6 11 13 
3 3 15 14 
3 3 16 15 
3 0 18 16 
3 35 20 25 
3 35 19 20 
3 31 19 35 
3 28 17 18 
3 31 18 19 
3 12 15 17 
3 8 26 6 
3 5 26 8 
3 3 1 0 
3 14 5 3 
3 14 26 5 
3 34 24 4 
3 34 22 24 
3 1 24 2 
3 20 2 21 
3 0 2 20 
3 24 1 4 
3 22 21 24 
3 23 25 21 
3 30 29 27 
